<svg width="339" height="386" viewBox="0 0 339 386" fill="none" xmlns="http://www.w3.org/2000/svg">
<path fill-rule="evenodd" clip-rule="evenodd" d="M321.573 259.275C323.166 261.703 324.76 264.131 326.433 266.502C326.679 266.851 326.93 267.202 327.184 267.555C329.554 270.863 332.093 274.406 332.055 278.612C332.037 280.681 331.736 282.967 329.742 284.079C329.696 283.273 328.543 284.07 328.155 284.337C328.132 284.353 328.112 284.367 328.095 284.379C327.403 284.849 327.266 285.048 327.093 285.087C326.933 285.123 326.741 285.021 326.051 284.868C325.181 284.676 324.358 284.653 323.557 284.63C322.211 284.592 320.925 284.555 319.574 283.725C318.266 282.922 316.963 282.111 315.661 281.301C312.411 279.28 309.163 277.26 305.839 275.346C295.778 269.552 285.817 263.619 276.483 256.694C271.31 252.855 265.994 249.143 260.669 245.424C249.2 237.414 237.686 229.373 227.446 219.969C212.462 206.209 196.738 192.558 178.958 182.494C178.691 182.343 178.313 182.175 177.891 181.987C176.424 181.336 174.421 180.447 174.665 179.198C174.871 178.147 176.629 176.782 177.958 175.75C178.412 175.397 178.816 175.083 179.091 174.835C180.416 173.634 181.759 172.457 183.104 171.279C185.553 169.133 188.003 166.988 190.332 164.706C196.991 158.182 203.601 150.983 208.943 143.328C211.28 139.978 212.588 136.29 213.932 132.5C214.082 132.077 214.231 131.654 214.384 131.229C215.723 127.492 216.96 122.891 214.787 119.195C213.781 117.482 212.392 116.787 210.449 116.917C210.193 116.934 209.979 116.957 209.798 116.976C208.847 117.078 208.812 117.081 208.276 115.648C208.192 115.422 208.11 115.192 208.026 114.96C207.433 113.304 206.806 111.551 205.192 110.619C203.446 109.611 202.21 110.51 200.828 111.515C200.701 111.608 200.572 111.702 200.442 111.794C200.152 111.376 199.851 110.907 199.535 110.414C197.916 107.891 195.901 104.751 192.905 104.545C189.188 104.291 187.068 108.854 185.774 111.637L185.751 111.687C181.933 119.903 176.965 127.577 171.622 134.894C165.831 142.824 159.91 150.891 153.529 158.359C153.238 158.7 152.938 159.075 152.627 159.463C151.499 160.872 150.234 162.454 148.741 163.206C146.789 164.191 145.168 163.266 143.518 162.134C142.613 161.513 141.713 160.888 140.815 160.264C137.853 158.207 134.903 156.157 131.796 154.283C128.362 152.211 124.854 150.273 121.345 148.334C120.271 147.741 119.197 147.147 118.124 146.55C117.324 146.104 116.539 145.622 115.755 145.139C114.561 144.405 113.367 143.671 112.112 143.061C111.005 142.524 109.842 142.141 108.679 141.758C107.805 141.471 106.931 141.184 106.081 140.83C112.902 138.797 120.063 141.163 126.608 143.324C127.051 143.471 127.493 143.617 127.93 143.76C131.508 144.931 135.251 146.15 139.071 145.835C142.375 145.564 145.373 143.794 147.986 141.862C152.71 138.369 153.081 133.123 151.541 127.821C150.499 124.232 149.131 120.724 147.765 117.218C146.808 114.763 145.852 112.309 145.008 109.829C144.077 107.091 143.435 104.183 145.556 101.817C147.454 99.7 149.91 99.4398 152.5 100.273C152.757 100.356 153.013 100.438 153.268 100.52C159.239 102.446 164.628 104.184 171.085 104C176.349 103.85 183.044 102.356 186.591 98.0784C188.534 95.7336 188.608 92.5097 188.616 89.6013C188.626 86.1542 188.408 82.6878 187.926 79.2755C187.741 77.9655 187.492 76.6544 187.244 75.3455C186.337 70.5713 185.435 65.8181 187.633 61.1787C188.289 59.7925 190.117 56.5631 191.926 56.3697C193.879 56.1609 194.338 58.5013 194.627 59.9698C194.662 60.1477 194.694 60.3129 194.726 60.4588C195.025 60.2704 195.312 60.2124 195.567 60.161C196.032 60.0671 196.389 59.9953 196.512 59.1919C198.379 61.1483 199.987 63.307 201.595 65.4678C202.286 66.396 202.977 67.3242 203.689 68.2375C204.703 69.537 205.971 70.7177 207.239 71.8996C208.816 73.3681 210.394 74.8372 211.483 76.5356C212.593 78.2644 211.749 80.5883 210.958 82.7674C210.558 83.868 210.173 84.931 210.058 85.8619C209.674 88.9886 210.49 92.5666 212.626 94.9507C213.625 96.0651 214.846 96.8397 216.323 97.1392C217.108 97.2983 217.873 97.1259 218.613 96.959C219.255 96.8143 219.879 96.6739 220.48 96.759C221.39 96.8878 221.562 97.4176 221.821 98.2188C221.867 98.3619 221.917 98.5138 221.974 98.6735C222.486 100.119 223.14 101.484 224.351 102.499C224.858 102.923 225.378 103.234 225.886 103.538C226.734 104.045 227.545 104.531 228.191 105.484C228.414 105.813 228.613 106.139 228.808 106.458C229.399 107.428 229.948 108.33 231 109.024C231.481 109.341 232.035 109.601 232.591 109.862C234.193 110.614 235.804 111.368 235.654 113.504L236.616 112.74C237.359 115.128 238.381 117.441 239.474 119.687C239.985 120.739 240.248 121.299 240.222 122.469C240.216 122.722 240.167 122.954 240.12 123.179C240.022 123.64 239.931 124.069 240.238 124.571C240.636 125.22 241.395 125.469 242.149 125.716C242.782 125.923 243.411 126.129 243.819 126.57C244.259 127.047 244.268 127.606 244.276 128.154C244.285 128.744 244.294 129.321 244.842 129.769C244.396 129.906 243.162 130.903 243.626 131.509C244.029 132.035 244.208 131.808 244.388 131.578C244.507 131.427 244.627 131.274 244.812 131.33C245.392 131.508 245.593 131.98 245.787 132.434C245.952 132.823 246.113 133.198 246.499 133.366C246.674 133.443 246.658 132.617 246.649 132.423C249.17 137.392 251.916 142.241 254.662 147.089C258.236 153.398 261.808 159.706 264.881 166.273C274.551 186.945 286.048 207.074 298.761 226.034C299.759 227.522 300.789 229.007 301.821 230.495C303.893 233.481 305.974 236.48 307.825 239.55C309.581 242.465 311.611 245.172 313.643 247.882C314.834 249.47 316.027 251.06 317.165 252.693C318.675 254.859 320.124 257.067 321.573 259.275ZM246.647 132.418C246.645 132.365 246.647 132.375 246.649 132.423C246.649 132.421 246.647 132.419 246.647 132.418ZM40.8719 115.82C40.8421 116.2 40.8117 116.589 40.941 117.03C41.0725 117.481 41.4482 117.819 41.8206 118.155C42.0869 118.395 42.3515 118.633 42.5234 118.91C43.9063 116.874 43.8582 112.514 43.0146 110.337C42.6162 109.309 41.8626 107.97 41.2659 107.067C41.1725 106.926 41.0195 106.773 40.8714 106.624C40.7078 106.46 40.5509 106.302 40.4863 106.174C40.3835 105.97 40.3366 105.692 40.289 105.41C40.2382 105.111 40.1874 104.808 40.0675 104.587C39.3967 103.34 37.9287 103.033 36.6386 103.18C36.4999 103.196 36.3596 103.212 36.2171 103.227C35.0347 103.357 33.7424 103.498 32.6871 104.011C32.3589 104.171 32.0799 104.366 31.8125 104.554C31.1904 104.99 30.634 105.38 29.6815 105.161C30.0229 105.749 29.7605 106.18 29.487 106.63C29.329 106.89 29.1665 107.157 29.1157 107.464C28.9367 108.539 29.2837 109.503 29.9936 110.319C31.3097 111.831 33.207 111.964 35.0563 112.093C35.2734 112.108 35.49 112.124 35.7049 112.141C37.4326 112.28 39.5581 112.566 40.5736 114.185C40.9526 114.79 40.9128 115.297 40.8719 115.82ZM48.7838 111.028C49.6247 112.47 51.5198 116.318 51.3751 118.121V122.723C51.2209 124.33 48.5059 127.076 47.1042 128.494C46.9456 128.655 46.8042 128.798 46.6849 128.92C43.7654 131.926 40.5946 132.31 36.2679 131.927C32.6031 131.602 27.856 130.38 25.3752 127.467C22.9939 124.672 23.0276 120.34 23.3801 116.898C23.8719 112.091 25.9808 107.711 28.7908 103.824C30.4367 101.547 34.9402 96.2458 38.3785 97.4055C38.8857 97.5767 39.2741 98.0309 39.6211 98.4359C39.6846 98.5105 39.747 98.5834 39.8084 98.653C40.089 99.0171 40.367 99.3829 40.6432 99.7509C40.8145 100.234 41.1228 100.377 41.567 100.179C41.9703 100.738 42.4289 101.25 42.8869 101.762C43.798 102.781 44.7063 103.796 45.1677 105.161C45.6058 106.458 46.5158 107.731 47.3987 108.967C47.8993 109.666 48.391 110.354 48.7838 111.028Z" fill="#E29925"/>
<path fill-rule="evenodd" clip-rule="evenodd" d="M201.283 376.098C203.785 375.119 206.869 375.576 209.492 375.623C212.786 375.683 216.088 375.933 219.371 376.189C225.677 376.684 231.951 376.475 238.262 377.065C241.395 377.357 244.531 377.628 247.666 377.894C250.412 378.128 253.6 378.856 256.341 378.333C257.472 378.116 260.526 377.051 259.96 375.394C259.524 374.116 256.085 373.327 254.966 372.964C252.331 372.107 249.61 371.493 246.946 370.73C245.578 370.338 244.216 369.916 242.776 370.052C241.553 370.168 240.265 371.08 239.026 370.975C237.195 370.82 236.25 368.52 234.907 367.505C232.767 365.889 231.182 366.753 229.541 368.533C228.329 369.849 227.173 371.841 225.184 371.959C222.653 372.109 222.16 369.939 223.277 368.099C224.306 366.403 227.107 364.665 227.257 362.551C227.352 361.216 225.216 357.642 223.986 357.133C221.919 356.279 218.996 358.542 217.127 359.236C213.862 360.449 210.53 361.522 207.224 362.617C204.963 363.366 201.608 363.432 201.181 366.081C200.647 369.399 201.298 372.767 201.283 376.098ZM71.8909 325.105C72.5484 323.649 73.2384 322.821 71.9246 321.469C71.1897 320.713 70.1532 320.342 69.43 319.558C68.3432 318.379 66.6404 315.158 68.9698 314.347C71.1964 313.571 73.0721 316.67 74.8639 317.351C77.138 318.215 78.5469 316.766 78.8723 314.593C79.29 311.801 78.8304 308.884 79.1641 306.057C79.4901 303.286 80.458 300.984 81.2006 298.331C81.7045 296.532 82.3205 294.721 80.0359 294.322C77.9408 293.957 75.5109 294.827 73.3865 294.943C70.0731 295.125 66.72 295.293 63.4342 295.789C59.7656 296.344 59.8324 300.095 58.9114 303.162C56.6782 310.598 53.6836 317.893 52.2891 325.558C51.6879 328.863 53.2814 331.126 55.1367 333.725C57.4589 336.979 59.875 340.225 62.5055 343.239C64.2619 345.252 66.2409 347.126 68.7985 348.052C71.6958 349.101 72.8031 347.936 72.1351 345.081C71.2522 341.311 69.9206 337.669 70.0775 333.743C70.135 332.313 70.5505 330.777 69.5195 329.581C68.8046 328.751 67.5797 328.471 66.6465 327.966C65.1083 327.133 62.7253 324.452 65.7221 323.875C67.7576 323.483 69.9206 324.852 71.8909 325.105ZM141.099 177.434C142.928 179.476 144.916 181.43 146.649 183.551C147.643 184.768 148.348 186.23 149.415 187.383C151.751 189.908 154.08 187.11 156.149 185.474C164.286 179.041 171.944 172.069 179.697 165.183C183.391 161.903 187.321 158.877 190.956 155.534C194.638 152.148 197.704 148.183 201.154 144.575C202.811 142.842 204.795 141.123 205.817 138.91C206.69 137.023 206.883 134.97 207.877 133.103C209.599 129.871 212.756 126.119 212.032 122.21C209.9 124.445 206.349 132.453 202.629 128.698C199.975 126.017 202.686 122.054 202.568 118.929C200.048 119.998 200.703 124.335 198.015 125.103C196.562 125.518 195.319 124.202 194.641 123.049C193.469 121.054 193.899 118.967 194.431 116.851C194.794 115.409 197.109 110.653 194.819 110.066C192.835 109.558 191.172 113.207 190.515 114.5C189.31 116.871 188.376 119.323 187.053 121.643C184.771 125.643 182.143 129.464 179.637 133.326C174.476 141.279 168.591 148.745 162.537 156.035C156.07 163.821 149.071 171.164 141.099 177.434ZM198.43 202.732C198.169 209.738 192.148 215.051 186.94 218.947C180.283 223.925 174.143 229.584 166.204 232.417C163.147 233.508 159.331 233.194 158.106 236.633C157.628 237.979 158.062 238.473 158.581 239.826C159.392 241.945 159.88 244.242 160.265 246.471C161.574 254.056 160.301 261.78 155.744 268.094C153.321 271.451 150.225 274.305 147.025 276.907C143.832 279.502 140.812 282.53 137.292 284.678C129.784 289.257 121.444 291.886 112.787 293.152C108.285 293.81 103.764 294.396 99.2173 294.629C96.8592 294.749 94.4967 294.772 92.1375 294.668C91.0833 294.622 87.1633 293.731 86.4014 294.335C85.8151 294.8 85.5538 297.615 85.4367 298.392C85.1875 300.034 84.9913 301.654 84.6521 303.282C83.9709 306.55 83.0532 310.247 84.0571 313.543C84.3477 314.497 84.583 315.273 85.466 315.594C86.0256 315.797 87.0174 315.44 87.5832 315.382C88.8633 315.25 90.0717 315.199 91.359 315.335C95.584 315.782 99.7328 316.862 104.003 316.568C113.106 315.941 122.218 315.3 131.237 313.876C135.625 313.183 139.834 311.872 144.149 310.859C148.261 309.894 152.371 308.92 156.209 307.107C163.729 303.554 170.679 298.855 176.887 293.35C183.515 287.474 187.902 280.508 192.048 272.734C195.69 265.905 198.761 258.993 198.602 251.12C198.5 246.138 197.787 239.966 200.667 235.572C201.983 233.565 204.637 231.705 207.11 232.766C211.598 234.693 207.358 238.507 205.647 240.597C203.181 243.607 203.512 248.191 203.256 251.873C202.954 256.218 201.978 260.029 201.026 264.23C200.094 268.342 201.974 273.221 202.159 277.416C202.361 281.965 202.228 286.519 202.177 291.07C202.076 300.121 202.497 309.148 202.466 318.198C202.449 322.891 202.569 327.608 202.272 332.295C202.002 336.569 201.127 340.658 200.36 344.854C199.608 348.973 198.512 353.905 198.766 358.092C209.049 354.178 219.06 349.554 229.502 346.057C226.245 343.217 226.1 339.204 225.837 335.198C225.492 329.917 224.622 324.68 224.243 319.399C223.494 308.968 223.704 297.995 224.591 287.576C225.544 276.39 227.234 265.242 227.581 254.009C227.749 248.597 227.33 243.172 226.448 237.832C225.706 233.334 225.061 227.673 222.715 223.687C220.474 219.878 216.353 217.459 212.914 214.864C207.886 211.071 203.228 206.805 198.43 202.732ZM199.052 56.4236C200.34 58.1646 201.795 59.7712 203.334 61.2923C204.923 62.862 205.599 62.515 207.5 61.6989C211.279 60.0746 211.206 58.1961 209.096 54.9401C204.203 47.3874 202.347 38.3926 197.169 30.9945C192.068 23.7049 184.647 17.8153 176.857 13.612C168.497 9.10144 159.438 7.66619 150.015 7.80078C145.199 7.86974 140.353 8.20207 135.568 8.74165C130.912 9.26614 126.772 10.7938 122.266 11.9472C119.997 12.5276 117.658 13.0092 115.452 13.8069C113.517 14.5064 111.777 15.5868 109.823 16.2405C105.543 17.6704 101.236 19.2687 97.3747 21.6073C93.5994 23.8944 90.1982 26.3334 86.7693 29.141C83.2184 32.0487 80.1343 35.4278 76.2944 37.9809C72.7986 40.3053 70.0184 43.437 66.8487 46.1608C63.537 49.0073 60.4827 52.4947 57.9981 56.0916C55.5687 59.6083 54.6444 64.1587 53.1769 68.1246C51.4686 72.7408 49.774 77.6752 49.1304 82.5693C47.9314 91.689 50.6227 102.348 54.0449 110.788C57.4301 119.135 62.916 126.1 69.4615 132.211C72.6522 135.192 76.1341 137.897 80.0354 139.89C83.3725 141.595 87.7241 144.661 91.3562 142.518C92.827 141.651 94.021 140.643 95.721 140.252C97.5797 139.826 99.4002 140 100.9 138.638C102.175 137.48 102.785 136.082 104.459 135.383C106.445 134.554 108.792 134.403 110.918 134.409C115.691 134.425 120.467 135.62 125.022 136.945C129.197 138.159 132.69 139.99 137.125 138.88C140.421 138.056 145.707 135.864 146.417 132.086C147.052 128.709 144.602 124.344 143.368 121.322C141.662 117.146 140.118 113.038 139.046 108.648C138.197 105.17 136.864 99.6042 139.261 96.4245C141.616 93.3007 147.061 93.3382 150.444 94.1239C152.661 94.6388 154.699 95.6759 156.918 96.1985C159.177 96.7312 161.516 96.9986 163.821 97.2599C171.809 98.1633 183.174 96.1206 182.749 85.9125C182.371 76.8144 177.357 67.6942 180.293 58.585C181.489 54.8722 183.934 50.5781 188.004 49.5979C191.232 48.8206 195.595 49.6355 198.444 51.324C200.729 52.6793 202.993 55.5175 199.052 56.4236ZM38.6294 97.0616C30.5772 98.6323 25.2516 107.12 23.7759 114.647C23.1068 118.058 22.8708 122.12 24.1643 125.42C25.6549 129.225 29.8689 130.813 33.5873 131.61C37.8377 132.523 41.6041 132.166 44.9739 129.22C46.4551 127.923 47.7099 126.414 48.7746 124.765C49.863 123.078 51.3769 121.849 50.2823 119.964C47.569 115.293 45.254 110.705 43.4672 105.566C42.6699 103.273 41.9611 101.033 41.4318 98.6716C41.0118 96.7964 40.8085 95.6521 38.6294 97.0616ZM109.155 148.013C107.597 149.513 105.807 150.709 103.796 151.515C101.59 152.4 100.92 151.975 101.03 154.527C101.151 157.345 101.171 159.6 99.8864 162.223C99.2852 163.45 97.0642 165.107 97.4835 166.487C98.0858 168.469 104.254 170.473 106.053 171.166C110.359 172.825 115.381 172.858 119.445 170.515C124.165 167.793 124.583 162.859 122.805 158.084C122.615 157.574 121.925 156.713 122.095 156.157C122.407 155.138 123.689 155.285 124.425 155.674C126.023 156.52 126.69 159.09 127.034 160.695C127.953 164.981 126.265 169.623 123.057 172.576C121.427 174.077 119.388 175.079 117.309 175.802C116.128 176.213 114.89 176.537 113.643 176.662C112.636 176.763 111.364 176.446 110.402 176.733C108.707 177.238 108.631 179.329 108.208 180.857C107.451 183.588 107.135 186.546 107.035 189.372C106.874 193.942 107.419 199.766 110.048 203.641C116.183 212.682 128.047 215.821 137.31 220.473C142.234 222.947 146.8 226.054 151.184 229.376C151.618 229.704 152.266 230.347 152.786 230.603C154.543 231.468 153.008 231.153 154.133 230.581C154.999 230.142 155.741 229.186 156.636 228.688C158.697 227.541 161.012 226.922 163.109 225.838C167.984 223.316 172.297 220.188 176.623 216.849C181.057 213.428 185.547 210.304 189.591 206.409C191.297 204.767 193.217 203.414 194.947 201.842C196.689 200.259 194.459 199.602 192.984 198.437C187.961 194.47 183.002 190.378 177.638 186.872C175.849 185.702 174.271 184.125 172.405 183.091C170.456 182.012 169.299 182.979 167.763 184.351C166.085 185.852 164.486 187.323 162.618 188.606C160.152 190.302 157.285 191.118 154.805 192.732C156.397 194.399 160.279 194.956 160.842 197.481C161.413 200.039 157.603 202.035 155.823 203.023C152.679 204.768 149.211 205.827 145.707 206.584C142.792 207.213 138.471 206.266 136.135 208.466C135.468 207.057 134.844 206.321 135.94 204.973C137.035 203.628 138.987 203.396 140.533 202.879C144.706 201.48 148.816 199.617 152.855 197.871C152.319 196.617 150.979 195.758 149.958 194.941C148.5 193.775 147.275 192.483 146.088 191.032C143.824 188.266 141.793 185.315 139.637 182.467C138.702 181.232 137.849 179.999 136.141 180.683C134.634 181.287 133.162 182.853 131.714 183.663C128.437 185.497 125.57 187.258 121.963 188.425C120.51 188.895 114.559 190.235 116.142 186.597C116.611 185.518 118.179 185.074 119.145 184.603C120.93 183.731 122.709 182.843 124.428 181.847C127.96 179.803 131.075 177.161 134.38 174.783C138.025 172.16 141.733 169.614 145.156 166.698C141.75 164.442 137.972 162.79 134.451 160.727C130.891 158.642 127.305 156.757 123.623 154.904C120.692 153.429 117.712 151.856 115.039 149.95C113.976 149.191 110.32 146.041 109.155 148.013ZM216.238 74.642C215.79 74.7547 215.347 74.8829 214.907 75.0254C217.893 79.5902 214.597 85.2412 215.531 90.1801C218.287 88.5502 218.648 82.2102 222.833 83.3821C227.341 84.6451 225.098 90.1928 226.462 93.3658C228.593 91.5039 231.08 93.2443 231.959 95.4532C232.91 97.8467 231.591 100.056 232.034 102.425C232.493 104.876 233.863 103.267 234.622 101.822C235.589 99.9793 236.434 97.4886 236.078 95.3808C235.644 92.8178 233.923 90.4342 232.857 88.106C231.798 85.7926 230.794 83.4318 229.261 81.3792C226.358 77.4929 221.315 74.001 216.238 74.642ZM245.11 129.38C243.162 124.516 240.277 120.061 238.434 115.157C237.895 113.723 237.594 111.438 236.169 110.554C235.232 109.974 233.986 110.322 232.953 110.01C231.923 109.699 230.838 108.958 230.099 108.192C228.749 106.793 228.31 104.872 226.717 103.654C224.661 102.081 223.072 101.477 222.094 98.8489C221.326 96.7848 221.324 96.482 219.016 96.9428C216.496 97.4456 214.449 96.8295 212.71 94.8609C209.766 91.5277 209.44 86.8319 210.885 82.8086C211.561 80.9267 212.736 78.7377 211.76 76.768C210.852 74.9376 208.649 73.6237 207.253 72.1651C203.724 68.4782 200.962 64.1637 197.653 60.295C196.861 59.3696 196.052 58.4463 195.441 57.3855C195.053 56.7115 194.825 55.5523 193.926 55.3617C192.379 55.0335 190.22 57.7082 189.442 58.6823C183.745 65.8118 187.821 75.5221 188.514 83.5594C188.868 87.6524 189.661 92.5592 187.846 96.4135C186.136 100.045 181.807 101.858 178.158 102.869C173.237 104.233 167.952 104.173 162.944 103.345C160.322 102.911 157.805 102.171 155.322 101.232C152.782 100.272 150.14 98.6207 147.551 100.363C144.209 102.612 145.242 107.124 145.975 110.413C147.174 115.785 149.268 120.796 151.12 125.957C152.675 130.291 153.934 135.729 150.664 139.607C147.399 143.481 141.982 145.905 136.941 145.704C126.49 145.288 116.95 137.495 106.27 140.682C108.277 141.512 110.398 142 112.359 142.949C114.726 144.095 116.916 145.619 119.214 146.894C123.625 149.34 128.051 151.752 132.362 154.374C136.257 156.742 139.939 159.336 143.656 161.961C148.289 165.231 150.729 161.609 153.7 158.076C160.187 150.365 166.363 142.199 172.257 134.027C177.381 126.923 182.138 119.505 185.844 111.568C187.17 108.728 189.402 103.911 193.283 104.471C196.727 104.968 198.736 109.124 200.517 111.668C201.759 110.778 202.824 109.587 204.502 110.078C205.894 110.483 206.855 111.911 207.472 113.128C207.895 113.965 208.183 116.786 208.891 117.21C209.395 117.513 211.32 116.863 212.178 117.062C215.114 117.74 216.053 121.515 216.023 124.134C215.982 127.746 214.473 131.358 213.236 134.702C210.465 142.198 205.717 148.056 200.483 153.979C195.171 159.99 189.61 165.438 183.618 170.772C182.14 172.088 180.676 173.42 179.234 174.777C178.052 175.889 176.18 177.046 175.255 178.353C173.543 180.772 178.123 181.87 179.827 182.755C187.161 186.563 193.919 191.578 200.377 196.692C207.038 201.967 213.735 207.261 220.135 212.85C226.395 218.317 232.309 224.144 238.901 229.228C245.675 234.451 252.772 239.273 259.733 244.243C266.7 249.217 273.479 254.451 280.438 259.433C287.239 264.3 294.539 268.473 301.692 272.795C305.434 275.056 309.195 277.285 312.954 279.517C315.994 281.322 319.293 284.127 322.897 284.355C326.144 284.561 329.224 285.756 331.165 282.225C332.638 279.545 332.028 275.858 330.738 273.255C329.164 270.077 326.701 267.155 324.722 264.214C322.446 260.833 320.335 257.354 318.089 253.955C315.936 250.695 313.542 247.688 311.14 244.616C308.705 241.502 306.856 237.993 304.686 234.696C300.046 227.648 295.276 220.727 290.877 213.521C280.79 196.995 271.755 179.934 263.122 162.616C262.361 161.09 244.614 129.652 245.11 129.38ZM230.907 230.986C236.329 249.726 233.202 268.782 232.091 287.846C231.529 297.485 231.443 307.185 231.194 316.837C231.072 321.529 231.081 326.225 231.276 330.915C231.374 333.274 231.546 335.626 231.714 337.98C231.863 340.063 231.304 342.365 231.567 344.374C231.903 346.947 237.013 347.452 235.443 350.756C234.39 352.971 230.702 353.31 228.726 354.244C229.605 355.261 230.979 356.783 232.444 356.879C233.764 356.965 234.783 355.821 235.966 355.388C237.016 355.004 238.461 354.631 239.124 355.857C239.819 357.141 238.364 358.567 237.789 359.562C239.745 359.94 241.097 358.773 242.861 358.88C244.717 358.993 244.801 360.819 246.021 361.876C247.416 363.084 249.851 363.344 251.57 363.853C253.571 364.443 255.582 365.177 257.403 366.203C260.66 368.038 263.458 371.505 264.661 375.053C265.908 378.731 263.961 381.913 261.06 384.17C259.978 385.011 258.429 385.988 256.995 385.535C255.357 385.016 255.101 383.683 253.104 383.782C251.311 383.871 249.608 384.587 247.806 384.679C245.156 384.814 242.509 384.331 239.856 384.433C229.152 384.844 218.447 384.936 207.76 383.906C204.995 383.64 202.285 383.422 199.56 383.335C197.44 383.268 197.263 381.687 196.904 379.702C196.036 374.91 197.955 370.191 197.005 365.534C197.068 365.842 195.567 365.042 195.387 364.89C194.285 363.963 193.917 362.646 193.589 361.277C192.715 357.632 192.724 353.918 192.994 350.201C193.609 341.763 195.178 333.403 195.05 324.921C194.985 320.646 195.114 316.381 195.115 312.107C195.116 308.181 195.472 304.307 195.505 300.409C195.577 291.861 196.477 283.41 196.728 274.872C194.949 276.602 194.005 279.016 192.875 281.175C191.485 283.831 189.935 286.459 188.237 288.93C184.732 294.033 180.029 298.186 175.157 301.951C165.86 309.135 155.759 314.699 144.368 317.746C132.036 321.045 119.565 323.272 106.852 324.523C103.911 324.812 100.937 324.969 97.9891 324.683C96.0586 324.495 92.9209 322.936 91.0866 323.727C89.002 324.626 88.5826 326.789 85.8494 326.183C84.8063 325.951 84.051 325.254 83.1377 324.785C81.7945 324.094 81.741 324.571 80.4586 324.659C79.0287 324.757 78.1718 324.043 76.9253 325.194C75.8673 326.172 75.97 326.857 76.9364 327.772C78.295 329.058 80.4696 329.273 81.8294 330.616C83.1526 331.923 82.9156 333.528 80.8719 333.548C78.8154 333.567 76.9877 332.103 74.9783 331.913C75.4065 337.858 77.1955 344.499 75.212 350.332C74.2915 353.038 72.3174 354.781 69.3731 354.762C64.4459 354.731 60.1241 350.198 57.1566 346.667C55.5162 344.716 54.1864 342.523 52.6029 340.523C50.9835 338.479 49.2469 336.423 48.3198 333.95C47.3336 331.32 47.6215 328.68 48.1729 325.98C48.8552 322.637 49.4895 319.261 50.3144 315.95C51.9139 309.531 55.1311 303.67 56.7555 297.27C57.3699 294.848 57.3622 292.007 58.913 289.93C60.5545 287.732 63.1088 287.591 65.642 287.732C68.7775 287.906 71.9108 288.253 75.0297 288.607C76.9994 288.831 81.315 290.251 82.9178 289.041C83.4697 288.624 83.4709 287.532 84.1162 287.155C84.7383 286.792 85.7428 287.052 86.4229 287.103C89.7904 287.353 93.1872 287.656 96.5614 287.755C109.103 288.122 122.338 286.167 133.536 280.341C138.732 277.637 142.691 273.38 146.867 269.36C150.974 265.407 154.553 261.152 155.658 255.413C156.667 250.174 156.285 243.908 154.609 238.836C152.977 233.896 147.184 230.904 142.968 228.468C137.121 225.09 130.915 222.29 124.615 219.865C123.615 219.481 122.4 218.991 121.3 219.188C119.952 219.429 119.046 220.597 117.82 221.113C116.362 221.726 114.573 221.729 113.034 222.087C111.543 222.434 110.088 222.911 108.569 223.141C103.784 223.862 97.0592 223.286 93.1044 220.23C86.64 215.234 90.5457 208.163 92.6226 202.083C90.4269 202.008 88.5987 202.522 86.503 201.583C84.4151 200.646 82.7824 198.988 81.8305 196.912C80.0989 193.134 81.099 188.793 81.61 184.854C81.841 183.072 82.1045 181.305 82.7841 179.632C83.3106 178.336 84.1747 177.102 84.4941 175.731C84.8455 174.222 84.3897 174.134 83.1311 173.412C81.1901 172.3 79.7934 171.02 78.6055 169.067C76.2789 165.242 76.2214 161.067 78.1276 157.043C78.8994 155.415 80.7404 153.175 80.531 151.273C80.3509 149.637 78.4989 148.362 77.4082 147.291C74.0401 143.982 70.4593 140.927 66.7244 138.041C64.979 136.692 63.0563 135.467 61.47 133.935C60.3076 132.812 59.1269 130.369 57.5373 129.779C55.9461 129.188 54.8864 130.965 53.778 131.918C52.0504 133.402 50.3945 135.11 48.5116 136.397C45.1346 138.706 40.9477 138.274 37.1338 137.537C33.1502 136.766 29.4556 135.409 26.0588 133.171C24.7096 132.282 23.1333 130.475 21.4719 130.331C19.6973 130.177 17.769 131.941 16.5004 133C13.1893 135.765 12.1953 140.06 10.2665 143.775C8.11284 147.924 7.1979 152.23 7.78411 156.894C8.3112 161.09 9.92728 164.26 12.3312 167.649C12.8285 168.35 13.9926 169.675 13.1418 170.45C12.1008 171.399 9.96816 169.496 9.26924 168.882C2.32699 162.776 -1.61846 153.576 0.635219 144.367C1.84466 139.422 4.21104 134.846 6.95921 130.592C8.12776 128.782 9.26758 126.972 11.2997 126.049C13.613 124.998 16.2341 125.123 18.7049 124.871C16.996 116.505 16.4612 107.402 21.7128 100.11C25.7428 94.5151 33.9961 89.6193 40.5367 94.1565C40.2687 87.9889 39.3897 82.1317 41.0312 76.0586C41.7666 73.3375 42.7743 70.6893 44.0131 68.1561C45.2264 65.6742 46.9021 63.5692 47.8823 60.9857C51.7498 50.7941 59.1705 41.6905 67.0962 34.3758C75.1081 26.9821 82.9697 17.9619 93.0618 13.3362C103.59 8.50971 114.313 4.17247 125.729 1.97947C137.577 -0.296916 149.756 -0.76417 161.693 1.39105C172.156 3.28051 181.84 9.63334 189.757 16.4822C198.792 24.2974 204.624 33.7189 209.238 44.6326C210.252 47.0299 211.229 49.4477 212.472 51.7389C213.851 54.281 215.623 56.6452 216.637 59.3729C217.542 61.8056 217.694 64.4449 216.083 66.6185C214.95 68.1467 212.626 68.4915 211.636 69.8893C211.136 70.5943 211.187 71.265 212.286 71.475C213.42 71.6916 213.961 70.4258 214.777 69.918C216.808 68.6539 219.674 69.7313 221.727 70.449C226.597 72.1513 230.408 75.2088 233.322 79.4465C236.11 83.5025 237.962 88.1104 239.803 92.6459C240.965 95.5074 242.071 98.35 242.71 101.382C242.951 102.522 243.286 105.614 241.484 104.259C240.753 103.71 239.709 107.878 239.905 108.542C240.591 110.85 243.035 113.014 244.473 114.883C247.856 119.277 250.121 124.198 252.507 129.168C257.675 139.928 263.43 150.375 268.959 160.949C280.218 182.483 292.523 203.19 305.43 223.773C311.825 233.97 318.417 243.994 325.253 253.902C328.269 258.274 331.295 262.649 334.245 267.066C336.753 270.819 339.228 274.998 338.582 279.682C337.992 283.971 335.444 287.416 331.323 288.819C329.115 289.571 326.494 290.437 324.131 290.206C321.546 289.954 319.266 288.225 317.113 286.927C307.214 280.962 297.314 275.002 287.409 269.048C276.332 262.389 266.201 254.482 255.633 247.078C250.255 243.311 244.71 239.915 239.107 236.505C237.846 235.737 232.121 230.235 230.907 230.986Z" fill="white"/>
<path fill-rule="evenodd" clip-rule="evenodd" d="M134.994 249.946C132.289 253.93 129.443 257.673 125.635 260.696C121.623 263.88 117.427 266.46 112.947 268.931C105.047 273.288 94.4569 277.146 85.2808 275.171C82.6714 274.61 78.4966 272.326 80.7652 269.067C81.9056 267.428 84.3515 267.856 86.0831 267.946C88.8727 268.091 91.312 268.25 93.985 267.312C98.8963 265.586 103.841 263.959 108.637 261.929C113.282 259.961 117.355 257.263 121.617 254.613C125.614 252.127 128.663 249.152 132.174 246.147C133.135 245.324 134.788 243.884 135.698 245.485C136.355 246.641 135.354 248.815 134.994 249.946Z" fill="#122888"/>
<path fill-rule="evenodd" clip-rule="evenodd" d="M244.324 58.6034C244.022 60.3288 243.204 63.7621 240.776 63.293C237.679 62.6952 239.205 56.632 239.158 54.5739C238.952 45.6056 236.028 36.9821 231.699 29.2064C229.545 25.3408 226.893 21.766 224.937 17.7897C224.557 17.0171 223.403 15.1009 224.241 14.2628C225.247 13.2562 227.177 14.7752 227.886 15.4935C230.628 18.2712 232.812 22.4355 234.928 25.704C237.754 30.0675 240.25 34.6765 242.043 39.5695C244.206 45.4797 245.422 52.3346 244.324 58.6034Z" fill="#E29925"/>
<path fill-rule="evenodd" clip-rule="evenodd" d="M250.119 29.9232C250.409 31.4785 251.824 35.7101 249.3 36.0853C246.439 36.5107 245.55 29.4602 244.755 27.5921C244.336 26.6074 242.104 22.2704 243.268 21.3263C245.69 19.3608 249.545 28.6719 250.119 29.9232Z" fill="#122888"/>
<path fill-rule="evenodd" clip-rule="evenodd" d="M115.445 239.785C112.729 242.26 109.576 242.114 106.147 241.879C104.406 241.759 100.375 240.728 103.177 238.569C104.64 237.441 116.123 236.666 115.445 239.785Z" fill="#122888"/>
<path fill-rule="evenodd" clip-rule="evenodd" d="M327.084 285.092C327.277 284.708 328.907 282.865 329.258 283.611C329.59 284.313 327.514 285.071 327.084 285.092Z" fill="black"/>
<path fill-rule="evenodd" clip-rule="evenodd" d="M111.054 148.287C110.719 148.976 109.324 148.374 108.844 148.479C109.497 147.08 110.273 147.38 111.054 148.287Z" fill="black"/>
<path fill-rule="evenodd" clip-rule="evenodd" d="M216.03 75.1415C215.885 75.694 215.74 76.2465 215.595 76.799C215.372 76.3852 215.148 75.9714 214.925 75.557C215.293 75.4188 215.662 75.2802 216.03 75.1415Z" fill="black"/>
<path fill-rule="evenodd" clip-rule="evenodd" d="M218.698 179.529C222.184 179.88 225.681 180.058 229.181 180.166C232.135 180.257 233.348 179.698 233.726 176.628C234.173 172.988 234.325 169.315 234.772 165.674C234.975 164.02 236.579 160.714 234.647 159.828C233.027 159.086 230.5 160.149 228.803 160.274C226.913 160.413 224.061 159.837 222.39 160.958C220.604 162.155 220.993 166.35 220.689 168.319C220.109 172.072 219.409 175.8 218.698 179.529ZM217.035 161.85C213.876 162.089 210.706 162.278 207.556 162.614C206.153 162.764 203.316 163.458 202.134 162.437C199.36 160.043 209.728 159.203 210.904 159.014C212.886 158.696 216.279 159.118 217.549 157.247C218.806 155.396 218.489 152.286 218.814 150.137C219.303 146.903 219.862 143.674 220.188 140.419C220.298 139.325 220.141 135.711 221.297 135.174C223.952 133.94 223.118 146.659 223.074 147.614C222.999 149.255 222.917 150.905 222.688 152.532C222.56 153.45 222.106 154.691 222.386 155.613C223.186 158.255 227.734 156.731 229.806 156.52C232.128 156.284 235.713 157.183 236.482 154.319C237.447 150.719 237.307 146.63 237.665 142.926C237.764 141.902 238.023 134.252 239.91 134.844C242.018 135.507 241.196 141.899 241.176 143.545C241.155 145.403 241.162 147.262 241.036 149.116C240.923 150.782 240.454 152.823 240.801 154.473C241.411 157.367 244.841 155.828 245.837 158.13C246.783 160.317 241.625 158.602 240.662 159.354C239.224 160.476 239.57 165.164 239.365 166.806C238.914 170.412 238.048 174.156 237.766 177.752C237.545 180.59 239.826 180.213 242.148 180.007C244.139 179.831 246.326 179.358 248.322 179.624C249.925 179.837 252.166 181.314 249.831 182.297C246.181 183.835 238.75 180.694 236.916 185.363C236.57 186.244 234.961 196.458 232.938 191.416C232.093 189.308 234.163 186.002 231.955 184.387C231.19 183.826 230.05 183.925 229.163 183.863C226.976 183.711 224.776 183.659 222.586 183.614C220.401 183.568 218.439 183.129 217.595 185.521C216.938 187.385 217.011 189.471 216.486 191.379C216.092 192.808 214.8 195.311 213.459 192.972C212.578 191.436 213.252 188.751 213.426 187.08C213.513 186.244 214.012 184.513 213.377 183.81C212.696 183.056 210.872 183.464 210.01 183.532C207.523 183.729 202.889 184.926 200.985 182.67C199.392 180.782 202.704 180.746 204.006 180.619C205.347 180.487 206.689 180.365 208.03 180.225C209.505 180.069 211.459 180.277 212.848 179.814C215.181 179.037 215.014 175.866 215.168 173.809C215.468 169.791 216.371 165.821 217.035 161.85Z" fill="#122888"/>
<path fill-rule="evenodd" clip-rule="evenodd" d="M258.021 170.431C257.832 172.751 257.581 175.352 256.832 177.557C256.265 179.224 255.12 179.73 254.73 177.608C254.483 176.263 256.127 168.684 258.021 170.431Z" fill="black"/>
<path fill-rule="evenodd" clip-rule="evenodd" d="M110.738 155.157C109.807 154.489 105.401 150.976 108.586 150.837C110.212 150.766 113.715 153.44 113.816 154.924C113.841 155.299 113.04 155.493 113.084 155.855C113.167 156.545 114.188 156.872 114.518 157.421C115.243 158.631 114.942 161.021 114.005 162.172C111.868 164.795 109.495 160.354 111.149 159.483C110.78 159.677 105.833 157.162 105.648 156.594C104.63 153.482 110.488 156.414 110.738 155.157Z" fill="#122888"/>
<path fill-rule="evenodd" clip-rule="evenodd" d="M118.504 167.402C117.374 167.437 115.104 167.359 114.258 166.552C112.684 165.052 115.753 164.853 116.651 164.154C117.91 163.176 118.157 159.992 120.132 161.962C122.092 163.916 120.369 166.189 118.504 167.402Z" fill="black"/>
<path fill-rule="evenodd" clip-rule="evenodd" d="M102.214 159.135C104.257 158.836 108.802 163.24 106.597 163.533C105.137 163.727 102.532 160.312 102.214 159.135Z" fill="black"/>
</svg>
