<svg width="389" height="276" viewBox="0 0 389 276" fill="none" xmlns="http://www.w3.org/2000/svg">
<path fill-rule="evenodd" clip-rule="evenodd" d="M203.282 104.04C202.98 103.606 202.442 104.123 202.667 104.436C202.872 104.305 203.077 104.172 203.282 104.04ZM211.589 106.455C211.252 106.287 211.137 106.551 211.004 106.856C210.965 106.946 210.924 107.039 210.876 107.126C211.179 107.292 211.319 106.999 211.461 106.703C211.502 106.617 211.544 106.53 211.589 106.455ZM205.739 96.028C205.06 95.163 205.011 95.4533 204.955 96.4391C205.085 96.3706 205.216 96.3021 205.347 96.2332C205.478 96.165 205.609 96.0965 205.739 96.028ZM298.435 49.2461C297.581 49.6459 297.49 49.9362 298.181 50.4253C298.263 50.0448 298.323 49.7659 298.435 49.2461ZM202.981 89.5783C203.183 90.2392 204.009 90.3815 204.009 89.5783H202.981ZM266.984 55.5187C267.477 55.6754 267.728 55.7556 267.95 55.7049C268.181 55.6523 268.379 55.4577 268.785 55.0602C268.585 55.1113 268.406 55.1572 268.234 55.2007C268.096 55.2359 267.963 55.2696 267.828 55.304C267.569 55.3699 267.304 55.4373 266.984 55.5187ZM244.137 123.267C243.846 122.855 243.555 122.445 243.264 122.034C243.165 122.336 243.067 122.638 242.969 122.94L242.968 122.942L242.895 123.165C243.309 123.199 243.723 123.232 244.137 123.267ZM303.171 39.1422C303.055 39.6911 302.998 39.9626 303.107 40.1178C303.213 40.2696 303.477 40.3101 304 40.3907L303.608 39.7998L303.559 39.7256C303.439 39.5454 303.313 39.3569 303.171 39.1422ZM298.549 40.8593C298.513 40.6807 298.477 40.5016 298.44 40.3229L298.435 40.2957C298.4 40.1261 298.366 39.9565 298.331 39.7865C298.269 40.0595 298.033 40.0447 297.803 40.0299C297.605 40.0174 297.412 40.0053 297.338 40.1768C296.974 41.0255 298.132 40.9104 298.549 40.8593ZM210.529 104.187C210.275 103.685 210.219 103.646 209.666 103.54C209.808 104.041 209.808 104.433 209.807 104.934V105.039C210.711 104.911 210.996 104.845 211.012 103.883L210.529 104.187ZM207.891 105.961C207.771 106.406 207.433 106.298 207.145 106.206C206.884 106.123 206.663 106.053 206.683 106.418C206.672 106.207 207.721 107.595 207.662 107.55C208.19 107.948 208.497 107.911 209.096 107.454C208.242 107.422 208.144 106.996 208.012 106.423C207.978 106.278 207.942 106.122 207.891 105.961ZM305.136 40.4437C304.95 40.8715 304.764 41.2996 304.578 41.7274L304.537 41.822C304.364 42.2183 304.192 42.6147 304.019 43.0106C303.941 43.1904 303.881 43.3491 303.828 43.4861C303.581 44.1349 303.514 44.311 302.609 44.0267C302.64 43.9737 302.714 43.8688 302.807 43.7375V43.7371C303.086 43.3415 303.536 42.7051 303.486 42.5125C303.439 42.3311 302.993 42.107 302.589 41.9041C302.34 41.7785 302.106 41.6611 301.993 41.5669C301.665 41.2943 301.546 41.046 301.42 40.7833C301.346 40.6288 301.269 40.4687 301.145 40.2961C301.278 39.863 301.175 39.6605 300.837 39.6896C300.74 39.9512 300.643 40.2124 300.545 40.4736L300.539 40.4903L300.464 40.6932C300.481 41.0956 300.681 41.2493 300.916 41.4298C301.096 41.5687 301.297 41.7232 301.451 42.0188L301.48 42.0752C301.704 42.5034 301.769 42.6268 301.733 42.7048C301.719 42.7362 301.687 42.76 301.644 42.7937C301.554 42.8638 301.409 42.9754 301.246 43.2832C301.096 43.5667 300.992 43.8775 300.89 44.1796C300.697 44.7546 300.514 45.2993 300.044 45.5704C300.43 45.7396 300.815 45.9088 301.2 46.0776C300.3 47.0649 302.171 46.5841 302.481 46.4884L302.48 46.4903L302.479 46.4922C302.163 47.1629 301.847 47.8334 301.532 48.5041C300.83 48.1116 300.391 47.4586 299.955 46.809C299.802 46.5807 299.648 46.3525 299.484 46.1363C299.003 47.0297 298.522 47.9235 298.042 48.8172C298.261 48.7971 298.48 48.7767 298.698 48.7566C298.958 48.7328 299.217 48.7089 299.476 48.6847C299.461 48.7135 299.418 48.7797 299.362 48.8672L299.361 48.8676C299.167 49.1677 298.809 49.7189 298.85 49.8677C298.946 50.2216 299.33 50.3257 299.707 50.4276C300.164 50.5517 300.61 50.6725 300.511 51.235C300.488 51.3664 299.029 52.8378 298.779 52.9797C298.933 53.049 299.069 53.0975 299.186 53.1395C299.625 53.2958 299.788 53.3541 299.581 54.0374C299.24 53.8319 298.9 53.6259 298.56 53.42C298.496 53.5347 298.43 53.6486 298.363 53.763L298.363 53.7633C298.129 54.1676 297.893 54.5746 297.749 55.019C297.784 55.3919 297.718 55.745 297.549 56.0789C297.349 56.3776 297.123 56.6562 296.871 56.9144C296.672 57.4387 296.608 60.3005 296.848 60.7673C297.383 60.0756 298.58 61.2965 296.56 61.2965C296.392 61.2965 296.258 61.29 296.148 61.2843C295.684 61.2613 295.671 61.2605 295.398 61.8893C295.132 62.5006 294.988 63.034 295.742 63.0927C295.286 63.9898 295.275 64.7216 295.262 65.5915C295.259 65.8042 295.255 66.0253 295.245 66.2589C295.213 67.005 295.044 67.7473 294.876 68.4832C294.827 68.6982 294.778 68.9125 294.733 69.1264C294.823 68.9977 294.912 68.869 295.002 68.7399C295.092 68.6112 295.181 68.4825 295.271 68.3534C295.668 69.1994 295.491 69.9361 295.288 70.7825C295.243 70.9676 295.198 71.1584 295.156 71.3564C294.868 70.976 294.725 71.2035 294.575 71.4435C294.463 71.6214 294.347 71.8061 294.164 71.7539C293.646 71.6063 293.664 71.4817 293.691 71.286C293.71 71.1505 293.734 70.9809 293.588 70.7458C293.521 70.6375 293.47 70.5459 293.425 70.4657C293.265 70.1787 293.188 70.0394 292.742 69.8017C292.2 69.5129 291.366 69.4232 290.621 69.3433C290.327 69.3115 290.047 69.2816 289.804 69.2411C288.385 69.0045 286.963 68.9428 285.527 68.8803L285.47 68.8777C280.023 68.6415 274.594 68.5809 269.148 68.8803C264.137 69.1559 259.005 69.8585 254.091 70.8102C253.741 70.8779 253.391 70.9457 253.042 71.0131C248.175 71.9519 243.404 72.8721 238.677 74.4711C238.241 74.6188 237.805 74.8376 237.369 75.056V75.0564C236.826 75.3289 236.282 75.6015 235.739 75.7359C235.357 75.8309 234.974 75.8861 234.588 75.9422C234.038 76.0217 233.482 76.1019 232.912 76.2995C231.63 76.7447 230.323 77.1304 229.016 77.5162C227.96 77.8277 226.904 78.1396 225.861 78.4826C225.193 78.7025 224.51 78.9126 223.823 79.1242C221.921 79.7095 219.984 80.3053 218.224 81.1468C217.697 81.3993 217.194 81.6972 216.691 81.9952C216.202 82.2851 215.712 82.5755 215.199 82.8238C214.984 82.9283 214.737 83.0305 214.477 83.138C213.551 83.5211 212.458 83.9731 212.055 84.8294C211.853 85.2571 211.887 85.5672 212.013 86.0104C212.245 86.8311 212.431 86.813 212.995 86.7581C213.042 86.7532 213.092 86.7486 213.145 86.7437C213.743 86.6911 214.452 86.3784 215.125 86.0816C215.522 85.9067 215.906 85.7375 216.247 85.6296C218.773 84.8339 221.329 84.1968 223.897 83.5593C225.836 83.0782 227.779 82.4407 229.717 81.8048C232.389 80.928 235.054 80.0536 237.693 79.5936C239.049 79.3574 240.369 78.9172 241.691 78.4765C243.001 78.0397 244.313 77.6021 245.664 77.3617C245.858 77.3273 246.171 77.2141 246.522 77.0873C247.251 76.8242 248.142 76.502 248.472 76.7C248.558 76.7523 248.729 77.1872 248.866 77.5362C248.934 77.7085 248.993 77.8599 249.03 77.9333C249.431 78.7343 249.891 79.5077 250.429 80.2251C251.62 81.8131 253.11 83.1743 254.586 84.5235L254.586 84.5239C255.121 85.0122 255.654 85.499 256.17 85.9942C257.798 87.5572 259.271 89.2387 260.748 90.9263V90.9267C261.284 91.538 261.82 92.1505 262.364 92.7581C262.461 92.6464 262.557 92.5344 262.653 92.4227L262.897 92.1395C262.725 93.4682 263.627 94.4559 264.461 95.3686C264.496 95.4072 264.531 95.4454 264.566 95.484C264.603 95.5241 264.639 95.5643 264.675 95.604C265.724 96.7684 266.568 97.8628 267.395 99.1904C267.865 99.9448 268.427 100.635 268.982 101.317C269.228 101.619 269.473 101.92 269.709 102.224C270.148 102.792 270.501 103.428 270.856 104.067C271.112 104.528 271.368 104.989 271.659 105.429C272.265 106.35 272.869 107.276 273.472 108.203C274.452 109.709 275.431 111.215 276.426 112.69C277.182 113.811 277.779 115.074 278.378 116.35C278.521 116.656 278.751 117.058 279.003 117.497V117.498C279.585 118.515 280.282 119.733 280.282 120.419C280.248 120.58 280.342 121.013 280.441 121.465C280.637 122.363 280.85 123.34 280.108 122.432C280.058 122.51 280.007 122.588 279.957 122.666L279.883 122.78C279.834 122.857 279.785 122.933 279.735 123.008C279.681 123.092 279.627 123.176 279.573 123.259C279.879 123.131 280.183 123.003 280.489 122.875C279.905 123.404 280.376 123.643 280.815 123.864C281.072 123.994 281.317 124.118 281.331 124.291C281.261 124.359 281.19 124.427 281.12 124.495L280.868 124.738C280.605 125.28 280.262 125.351 279.841 124.949C279.648 124.961 279.519 124.923 279.397 124.887C279.226 124.836 279.068 124.789 278.766 124.89C278.981 125.226 279.223 125.324 279.448 125.414C279.741 125.532 280.006 125.638 280.148 126.241C280.325 126.997 279.908 127.276 279.353 127.645C279.205 127.744 279.046 127.85 278.886 127.973V127.973L278.866 127.969C278.908 127.377 278.618 126.941 278.098 126.665V127.829C278.241 127.855 278.384 127.881 278.527 127.907L278.531 127.908L278.866 127.969C278.866 127.976 278.866 127.983 278.865 127.99L278.886 127.973C278.764 128.442 278.405 128.356 277.976 128.253C277.901 128.235 277.823 128.216 277.745 128.2C276.819 128.01 275.82 127.686 274.874 127.38C274.577 127.284 274.286 127.189 274.003 127.101C271.446 126.304 268.868 125.631 266.223 125.086C261.733 124.16 257.271 123.955 252.772 123.749H252.771C251.224 123.678 249.673 123.606 248.115 123.506C248.123 123.472 248.13 123.441 248.138 123.411C248.214 123.093 248.246 122.964 248.226 122.842C248.213 122.759 248.177 122.68 248.114 122.546C248.106 122.526 248.096 122.506 248.086 122.484C248.183 122.694 248.01 122.712 247.835 122.73C247.569 122.758 247.299 122.786 247.968 123.493C246.22 123.779 244.385 123.755 242.561 123.732C241.433 123.717 240.309 123.703 239.213 123.762C239.242 123.696 239.281 123.628 239.318 123.56C239.453 123.319 239.59 123.075 239.367 122.906C238.393 124.314 235.786 124.281 233.561 124.252C232.681 124.241 231.86 124.23 231.224 124.31C230.456 124.406 229.694 124.554 228.931 124.702C228.385 124.808 227.84 124.914 227.292 125.001C227.2 125.015 227.108 125.03 227.016 125.044C226.463 125.13 225.908 125.217 225.367 125.363C225.169 125.416 224.927 125.526 224.671 125.641C224.176 125.865 223.632 126.111 223.269 126.012C223.826 124.891 223.555 125.215 223.292 125.529C223.174 125.669 223.059 125.807 223.02 125.813C222.944 125.824 222.856 125.838 222.761 125.854C222.38 125.916 221.87 125.998 221.43 125.998C221.688 124.962 222.022 123.959 222.356 122.956C222.833 121.528 223.308 120.1 223.562 118.579C223.595 118.382 223.635 118.172 223.677 117.951V117.951C223.978 116.354 224.38 114.226 222.978 113.221C222.283 112.722 221.235 112.534 220.326 112.371H220.325C220.091 112.329 219.865 112.289 219.657 112.245C219.312 112.172 218.886 112.123 218.434 112.071C217.434 111.955 216.308 111.825 215.642 111.393C215.359 111.209 215.159 111.03 214.968 110.859C214.651 110.575 214.358 110.312 213.741 110.078C213.516 109.992 213.315 109.907 213.128 109.828C212.37 109.506 211.849 109.286 210.925 109.566C211 109.472 211.08 109.382 211.157 109.295C211.563 108.838 211.903 108.456 211.131 107.952C210.981 107.855 210.773 107.849 210.57 107.842C210.262 107.833 209.963 107.824 209.884 107.501C209.384 107.854 209.337 108.158 209.276 108.555C209.254 108.699 209.229 108.856 209.181 109.033C209.197 109.312 209.271 109.579 209.402 109.831L208.939 110.018L208.319 110.267C208.456 109.9 208.271 109.882 208.071 109.863C207.936 109.851 207.794 109.837 207.74 109.715C207.592 109.38 207.619 108.915 207.643 108.495C207.651 108.348 207.659 108.207 207.659 108.079C206.915 108.314 206.136 108.605 205.811 109.379C205.089 108.949 205.166 108.836 205.461 108.403C205.539 108.289 205.631 108.153 205.729 107.984C204.964 107.803 204.802 108.196 204.685 108.83C204.396 108.74 204.105 108.651 203.815 108.562L203.807 108.559L203.474 108.456C204.384 108.45 204.602 107.739 204.624 106.967C204.472 107.016 204.32 107.066 204.167 107.115L204.162 107.117C203.962 107.182 203.762 107.247 203.562 107.312L203.344 108.433C202.837 108.863 201.591 108.196 201.016 107.888L201.015 107.888C200.958 107.857 200.908 107.83 200.865 107.808L200.718 107.732C199.189 106.941 198.631 106.653 198.855 104.779C198.935 104.112 199.054 103.443 199.174 102.773C199.345 101.818 199.516 100.86 199.572 99.9017C199.665 98.3053 199.512 96.6113 199.365 94.9961C199.346 94.7807 199.326 94.5668 199.308 94.3544C199.194 93.0636 199.055 91.7792 198.916 90.4962V90.4959C198.678 88.3109 198.442 86.1289 198.332 83.9212C198.307 83.4132 198.281 82.9052 198.256 82.3968L198.255 82.3964C198.185 81.0071 198.114 79.6179 198.06 78.2278C198.05 77.9788 198.027 77.7259 198.005 77.476C197.894 76.2124 197.79 75.0367 199.362 74.9246C199.132 74.194 199.821 73.3491 200.533 72.949C200.781 72.3823 201.053 72.3316 201.349 72.7976C201.605 72.8782 201.844 72.8403 202.065 72.6832C202.698 72.5398 203.409 71.9345 204.078 71.3644C204.504 71.0017 204.913 70.6534 205.275 70.4471C205.522 70.3063 205.849 70.1477 206.207 69.9743H206.208C207.168 69.5087 208.353 68.9345 208.828 68.2966C209.18 67.823 209.038 67.6444 208.877 67.443C208.75 67.284 208.613 67.1114 208.698 66.7691C208.944 65.7758 209.799 67.0493 210.027 67.3888C210.043 67.4116 210.055 67.4305 210.065 67.4437C210.167 67.3411 210.361 67.2098 210.577 67.0633C211.039 66.7514 211.602 66.3705 211.592 66.0526L210.694 65.8924C210.79 65.8372 210.92 65.7493 211.066 65.6513C211.417 65.4147 211.858 65.1175 212.127 65.0649C212.265 65.038 212.363 65.0093 212.436 64.9877C212.526 64.9612 212.578 64.9453 212.624 64.9574C212.689 64.9741 212.74 65.0471 212.863 65.2239C212.912 65.2943 212.972 65.381 213.049 65.487C213.1 65.4086 213.171 65.2796 213.253 65.1308V65.1304C213.463 64.7496 213.745 64.2374 213.942 64.1038C214.02 64.0515 214.32 64.0095 214.588 63.9724C214.776 63.9459 214.947 63.9221 215.015 63.8982C215.485 63.732 215.668 63.4546 215.845 63.1873C215.985 62.9734 216.122 62.7656 216.399 62.6263C216.561 62.5453 216.743 62.5741 216.915 62.6017C217.065 62.6259 217.209 62.6486 217.327 62.5972C217.539 62.5044 217.64 62.2936 217.742 62.0827C217.834 61.8915 217.926 61.7004 218.1 61.5963C218.272 61.4937 218.586 61.4925 218.899 61.4914C219.165 61.4907 219.43 61.4895 219.604 61.4259C220.025 61.2722 220.152 61.1257 220.33 60.9202C220.419 60.8184 220.52 60.7021 220.675 60.5628C221.052 60.2263 221.412 60.1105 221.789 59.989C222.069 59.8985 222.359 59.805 222.673 59.6146C223.045 59.3886 223.207 59.0233 223.357 58.6864C223.513 58.3358 223.654 58.016 224.006 57.9145C224.403 57.8006 224.672 57.8975 224.891 57.9758C225.179 58.0796 225.379 58.1511 225.664 57.6605C225.709 57.5829 225.654 57.4898 225.592 57.386C225.5 57.2312 225.394 57.0533 225.586 56.8674C225.929 56.5358 226.098 56.8353 226.255 57.1146C226.279 57.157 226.302 57.199 226.326 57.2384L226.327 57.2361L226.329 57.2339C226.537 56.8421 226.744 56.4503 226.952 56.0585C227.565 56.3943 227.645 56.2599 227.79 56.0187C227.883 55.8654 228.001 55.669 228.298 55.5225C228.461 55.4422 228.61 55.4766 228.763 55.5119C228.928 55.5497 229.096 55.5887 229.29 55.4835C229.453 55.3949 229.536 55.2435 229.618 55.0936C229.673 54.9925 229.728 54.8922 229.807 54.8115C229.922 54.6949 230.021 54.5651 230.119 54.4356C230.346 54.1381 230.571 53.8428 230.979 53.7149C230.767 53.7807 232.501 53.7308 232.346 53.6566C232.178 53.409 232.009 53.1614 231.84 52.9139C232.024 52.9139 232.203 52.9177 232.379 52.9214H232.379C233.072 52.9354 233.717 52.9491 234.418 52.7314L234.432 52.7272C234.743 52.6307 235.218 52.4838 235.473 52.2893L235.494 52.2734C235.808 52.033 235.946 51.9281 236.002 51.79C236.046 51.6824 236.042 51.5549 236.033 51.3285C236.028 51.21 236.023 51.0647 236.023 50.8807C237.003 51.5045 238.251 51.2865 239.218 50.5631C239.434 50.4014 239.617 50.2262 239.8 50.0517C240.043 49.8185 240.284 49.5872 240.601 49.3918C240.838 49.2688 241.08 49.1537 241.326 49.047C241.633 48.729 241.941 48.726 242.249 49.0383C242.557 48.9558 242.645 48.8914 242.789 48.7865C242.849 48.7426 242.919 48.6915 243.018 48.6291C243.115 48.4375 243.218 48.2494 243.329 48.065C243.691 48.0272 244.049 47.9617 244.402 47.8686C244.798 47.7622 245.149 47.6096 245.479 47.4665C246.287 47.1156 246.966 46.8211 247.868 47.3961L247.968 47.1936L247.971 47.1864C248.1 46.9248 248.228 46.6633 248.356 46.4017C248.739 47.0002 249.036 46.77 249.432 46.463C249.595 46.3366 249.775 46.1973 249.984 46.0973C250.137 46.0243 250.314 45.9792 250.487 45.9353C250.653 45.8929 250.814 45.8516 250.947 45.7873C251.1 45.8233 251.254 45.8596 251.407 45.8959C251.537 45.4947 251.666 45.0934 251.796 44.6922C251.865 44.719 251.987 44.7773 252.136 44.8481C252.553 45.0465 253.176 45.3433 253.406 45.3213C253.651 45.2982 253.922 45.0605 254.189 44.8269C254.408 44.6346 254.624 44.445 254.819 44.3806C255.195 44.2568 255.28 44.2966 255.404 44.3549C255.497 44.3992 255.612 44.4533 255.891 44.4552C255.956 44.4556 256.017 44.4575 256.074 44.459C256.454 44.4688 256.681 44.4749 257.055 44.1107C255.847 43.7969 256.907 43.6209 257.653 43.4967C257.806 43.4713 257.946 43.4482 258.05 43.4263C258.315 43.3714 258.544 43.3475 258.751 43.3263C259.292 43.2707 259.682 43.2306 260.162 42.6847H259.473C259.977 42.2263 259.982 42.2274 260.242 42.2834C260.332 42.3028 260.455 42.3292 260.64 42.3448C260.69 42.3489 260.777 42.3785 260.883 42.4144C261.253 42.5405 261.847 42.743 261.849 42.1835C262.774 42.729 262.785 42.7301 263.739 42.4841C263.912 42.4394 264.075 42.3535 264.238 42.2672C264.474 42.1426 264.712 42.0169 264.986 42.012C265.201 42.0082 265.388 42.0529 265.568 42.0957C265.766 42.143 265.956 42.188 266.168 42.165C266.385 42.1419 267.09 41.8837 267.439 41.7557C267.478 41.741 267.514 41.7281 267.543 41.7175C267.764 41.6369 267.948 41.512 268.129 41.3889C268.32 41.2595 268.507 41.1323 268.73 41.0622C268.984 40.982 269.276 40.9952 269.568 41.0085C269.825 41.0202 270.083 41.032 270.317 40.9805C270.805 40.8733 271.226 40.706 271.629 40.5459C272.461 40.2154 273.213 39.9164 274.302 40.2423C274.47 38.8364 276.178 39.101 277.164 39.2539L277.248 39.2668C277.428 39.2948 277.585 39.3345 277.731 39.372C278.132 39.4739 278.454 39.556 278.966 39.3133C279.214 39.1964 279.415 39.0495 279.615 38.9034C279.876 38.713 280.136 38.5237 280.494 38.4022C280.902 38.2636 281.43 38.1569 281.889 38.0638C281.976 38.046 282.061 38.0289 282.142 38.0119C282.456 37.9127 282.777 37.8809 283.104 37.9169C283.454 37.9661 283.743 38.1247 283.973 38.3923C283.967 38.4071 283.972 38.415 283.991 38.4135C283.985 38.4063 283.979 38.3995 283.973 38.3923C284.022 38.2742 284.788 37.7072 284.7 37.7772C284.879 37.6337 285.028 37.5527 285.16 37.4812C285.447 37.3252 285.648 37.2154 285.889 36.6052C285.685 36.5624 285.481 36.5193 285.277 36.4761C285.073 36.4333 284.87 36.3902 284.666 36.347C284.738 36.3421 284.808 36.3372 284.877 36.3319C285.405 36.2921 285.833 36.2603 286.329 36.4769C286.493 36.5488 286.705 36.7517 286.924 36.9614C287.221 37.2461 287.532 37.5433 287.755 37.5436C288.456 37.5444 288.702 36.556 288.632 36.0415C289.221 37.4123 289.723 37.6405 291.045 36.9398C291.123 36.8986 291.2 36.8577 291.278 36.8164L291.288 36.8111C291.362 36.7718 291.437 36.7324 291.511 36.6926C291.826 36.3629 292.138 36.369 292.449 36.7112C292.634 36.8119 292.818 36.9122 293.004 37.0129L293.144 36.7797C293.319 36.4879 293.495 36.196 293.67 35.9038C294.142 36.5533 294.59 36.5851 295.359 36.4333C295.621 36.3819 296.018 36.1222 296.4 35.872C296.794 35.6145 297.171 35.3677 297.369 35.3677C297.478 35.3677 297.6 35.4934 297.739 35.6365C297.893 35.7936 298.066 35.9719 298.264 36.0283C298.89 36.2077 299.862 35.7565 300.085 35.1576C300.204 35.4075 300.322 35.6577 300.44 35.9079C300.514 35.8394 300.587 35.7705 300.661 35.702C300.883 35.4945 301.106 35.2867 301.326 35.0778C301.405 35.7595 301.926 35.7489 302.379 35.7398C302.714 35.733 303.012 35.727 303.07 35.9991C303.139 36.3179 302.209 37.0095 301.655 37.4214C301.507 37.5308 301.387 37.6209 301.318 37.6784C302.194 38.2068 303.272 37.2839 304.065 36.6052C304.225 36.4678 304.374 36.3402 304.507 36.2369C304.914 36.6786 305.052 36.9107 304.678 37.4161C304.335 37.8802 304.179 37.7833 303.997 37.6704C303.829 37.5663 303.64 37.449 303.264 37.7469C303.524 38.1838 303.759 38.074 304.053 37.9366C304.128 37.901 304.208 37.8639 304.293 37.8336C304.187 38.4495 304.281 38.479 304.44 38.529C304.554 38.565 304.701 38.6115 304.834 38.8901C305.028 39.3009 305.058 39.6306 305.094 40.0288C305.105 40.1583 305.118 40.2949 305.136 40.4437ZM184.361 93.6999C184.715 93.6696 184.815 93.8328 184.904 93.9797C184.98 94.1038 185.049 94.2159 185.257 94.1886C185.434 94.1655 185.576 93.9785 185.722 93.7866C185.849 93.62 185.978 93.4497 186.135 93.3812C186.849 93.0689 187.886 93.0208 188.837 92.9769C189.284 92.9564 189.711 92.9364 190.078 92.8906C190.683 92.8152 191.252 92.6381 191.815 92.4628V92.4624C192.344 92.2981 192.867 92.135 193.411 92.0589C193.873 91.9945 194.21 92.0782 194.648 92.2062C194.68 92.2156 194.71 92.2243 194.74 92.233C195.149 92.3523 195.351 92.4109 195.473 92.5431C195.591 92.6714 195.634 92.8694 195.719 93.2597L195.722 93.2756C196.169 95.339 195.824 97.5335 195.478 99.7264C195.026 102.599 194.574 105.469 195.906 108.038C189.04 107.983 182.161 108.12 175.336 108.924C175.336 108.321 175.34 107.718 175.345 107.115C175.36 105.125 175.375 103.137 175.225 101.148C175.156 100.238 175.061 99.3312 174.966 98.4238V98.4234C174.938 98.1581 174.91 97.8923 174.883 97.6266C174.74 96.2271 174.774 96.2203 175.791 96.0113C175.856 95.9981 175.925 95.9841 175.998 95.9686C176.36 95.8925 176.591 95.7289 176.834 95.5567C177.02 95.425 177.214 95.2879 177.479 95.1808C177.786 95.0563 177.98 95.118 178.211 95.1914C178.325 95.2274 178.447 95.2663 178.596 95.2872C179.18 95.3697 179.348 95.322 179.674 95.23C179.801 95.194 179.951 95.1516 180.158 95.1074C180.545 95.0248 180.918 94.9696 181.279 94.9162C182.402 94.7496 183.409 94.6001 184.361 93.6999ZM305.039 51.2978C304.94 51.2399 304.841 51.1824 304.742 51.1245C303.569 53.6096 302.8 56.1997 302.021 58.8238C301.908 59.2061 301.794 59.5892 301.679 59.9731C301.209 61.5384 300.742 63.104 300.276 64.6705C300.19 64.9586 300.086 65.2572 299.979 65.5623C299.626 66.5757 299.248 67.6595 299.44 68.6509C300.922 66.3668 302.333 64.036 303.673 61.6659C304.326 60.5102 304.963 59.3454 305.585 58.1731C305.666 58.0213 305.766 57.8596 305.87 57.6931C306.095 57.3312 306.335 56.945 306.422 56.5771C306.533 56.105 306.646 55.9654 306.614 55.8802C306.584 55.8011 306.429 55.7693 306.031 55.5626C306.349 55.2022 306.556 55.3018 306.728 55.3847C306.826 55.4316 306.913 55.4736 307.003 55.4214C307.225 55.2931 307.525 54.8948 307.764 54.5795C307.862 54.4496 307.95 54.3334 308.017 54.2566C307.832 54.204 307.527 54.1468 307.172 54.0802C306.259 53.9087 305.021 53.6766 304.681 53.3038C304.137 52.7076 304.718 52.1878 305.288 51.6779C305.342 51.6302 305.395 51.5829 305.447 51.5352C305.311 51.4561 305.175 51.377 305.039 51.2978Z" fill="#E29925"/>
<path fill-rule="evenodd" clip-rule="evenodd" d="M150.133 152.07C149.973 152.896 149.572 153.286 149.992 154.045C150.349 154.689 151.373 155.111 152.06 154.948L150.133 152.07ZM131.519 122.677L128.129 123.839C129.056 124.748 129.939 125.703 130.96 126.51L131.519 122.677ZM187.422 125.653C185.806 124.838 183.995 124.746 182.223 124.641C182.493 126.096 182.762 127.551 183.032 129.006C184.495 127.888 185.959 126.77 187.422 125.653ZM148.609 238.269C148.286 237.698 146.086 233.284 145.629 233.511C145.386 233.631 145.367 236.088 145.331 236.438C145.205 237.681 145.079 238.924 144.953 240.167C146.254 239.707 147.644 239.326 148.609 238.269ZM133.236 202.589C133.569 203.564 133.902 204.54 134.235 205.516C134.393 205.979 134.486 206.663 134.766 207.073C135.13 207.603 134.856 207.916 135.341 207.334C135.863 206.71 136.019 205.045 136.245 204.281C136.589 203.119 136.933 201.958 137.277 200.797C135.656 200.783 134.674 202.117 133.236 202.589ZM99.1814 145.148C97.1887 146.51 95.1714 147.861 93.4377 149.554C94.9628 149.459 97.0865 150.509 98.5231 150.016C99.1863 150.157 99.4055 149.905 99.1814 149.26V147.918V145.148ZM128.728 154.783V162.735C130.589 161.15 132.547 159.677 134.337 158.01C132.467 156.934 130.598 155.859 128.728 154.783ZM195.239 175.388C194.652 178.928 194.62 182.571 194.459 186.154C194.43 186.79 194.186 187.747 194.609 188.304C195.034 188.862 196.245 189.172 196.861 189.47C198.593 190.31 200.313 191.173 202.04 192.023C199.773 186.478 197.506 180.933 195.239 175.388ZM239.208 153.616C243.481 151.516 247.753 149.416 252.026 147.315C247.837 145.542 243.648 143.769 239.459 141.995C239.375 145.869 239.292 149.743 239.208 153.616ZM195.23 163.505C196.011 163.561 196.135 160.586 196.264 159.8C196.51 158.307 196.762 156.815 197.02 155.324C197.538 152.343 198.082 149.367 198.654 146.396C199.799 140.456 201.061 134.538 202.46 128.653C200.957 128.382 199.575 128.187 198.107 127.749C196.921 127.396 195.509 127.588 194.45 126.853C194.312 129.611 195.001 132.543 195.256 135.3C195.551 138.491 195.71 141.665 195.683 144.87C195.632 151.082 195.396 157.295 195.23 163.505ZM96.89 247.663C97.6305 247.466 96.6224 237.316 96.5774 235.852C96.4486 231.614 96.4237 227.373 96.4994 223.134C92.5102 225.636 88.4283 227.94 84.2143 230.018C85.2973 231.422 86.3122 232.937 87.5107 234.245C88.7455 235.591 90.1621 236.695 91.3064 238.145C93.6103 241.065 95.1885 244.381 96.89 247.663ZM192.885 187.618C193.071 184.565 193.243 181.519 193.551 178.475C193.682 177.18 194.934 170.296 192.93 170.458C191.789 170.55 189.789 172.219 188.744 172.804C187.363 173.576 185.98 174.346 184.592 175.106C181.854 176.607 179.097 178.074 176.349 179.557C181.861 182.244 187.373 184.932 192.885 187.618ZM180.984 124.136C178.701 123.966 176.494 123.796 174.242 123.371C173.028 123.142 171.814 123.173 170.593 123.019C169.718 122.908 168.009 122.19 167.195 122.425C166.171 122.72 165.799 127.85 165.658 129.137C165.432 131.211 165.279 133.727 166.205 135.675C167.99 139.43 172.801 136.499 175.141 134.924C177.147 133.573 179.419 132.205 181.198 130.566C182.774 129.113 181.36 126.013 180.984 124.136ZM192.824 164.972C194.544 164.276 194.517 163.403 194.592 161.603C194.683 159.417 194.736 157.227 194.798 155.04C194.91 151.141 195.015 147.241 194.98 143.341C194.946 139.531 194.76 135.727 194.324 131.94C194.17 130.601 194.323 128.314 193.617 127.172C192.973 126.13 190.975 126.119 189.884 126.184C188.655 126.256 187.659 127.424 186.751 128.162C185.746 128.98 183.681 130.132 183.517 131.351C183.332 132.713 184.08 134.657 184.37 135.978C185.43 140.799 186.721 145.574 188.08 150.318C189.489 155.241 190.918 160.213 192.824 164.972ZM149.122 153.431C149.232 152.348 149.636 151.443 149.09 150.411C148.622 149.524 147.86 148.632 147.287 147.792C145.648 145.386 143.81 143.081 142.024 140.783C140.389 138.678 138.713 136.595 136.999 134.553C136.045 133.417 135.06 132.304 134.082 131.188C133.366 130.37 132.686 129.222 131.673 128.794C130.926 133.487 130.309 138.2 129.828 142.928C129.595 145.213 129.395 147.502 129.226 149.793C129.178 150.44 128.677 152.623 128.997 153.226C129.335 153.858 131.396 154.705 132.027 155.092C133.791 156.177 135.162 157.81 136.839 156.028C137.994 154.801 138.925 153.071 140.215 152C140.888 151.442 141.521 151.468 142.276 151.137C143.153 150.752 143.181 150.381 144.229 150.905C145.995 151.787 147.068 153.089 149.122 153.431ZM60.7117 177.577C60.7117 180.826 60.4895 183.497 62.6919 186.127C64.6164 188.426 66.6163 188.957 69.3233 189.864C70.9174 190.398 71.0287 189.906 72.3203 189.004C73.5479 188.148 74.8846 187.461 76.0952 186.577C78.7045 184.673 81.312 182.709 83.8479 180.707C84.7004 180.033 84.5747 180.263 84.4452 179.455C84.3267 178.718 83.7983 177.781 83.5095 177.081C82.9871 175.814 82.3715 174.588 81.7556 173.364C81.0564 171.975 80.4474 170.467 79.579 169.173C79.2186 168.635 78.7908 168.149 78.3703 167.659C77.4848 166.628 77.5163 166.666 76.4575 167.509C74.2221 169.29 72.1424 171.217 69.6265 172.609C66.65 174.256 63.6807 175.914 60.7117 177.577ZM128.112 152.409C128.435 147.744 128.799 143.106 129.358 138.462C129.646 136.078 129.98 133.701 130.305 131.321C130.437 130.353 130.949 128.727 130.664 127.786C130.384 126.859 129.149 125.978 128.472 125.308C128.29 125.128 127.73 124.372 127.489 124.338C127.231 124.302 126.261 125.012 125.981 125.172C124.992 125.74 124.02 126.336 123.063 126.957C121.26 128.127 119.512 129.383 117.802 130.685C114.217 133.417 110.797 136.356 107.288 139.183C110.503 142.001 114.461 144.189 118.056 146.471C120.181 147.821 122.318 149.156 124.482 150.442C125.58 151.094 126.852 152.091 128.112 152.409ZM84.1572 235.819C81.5607 237.536 79.0812 239.348 76.1448 240.45C73.2216 241.547 70.3325 241.969 67.3113 242.621C65.7877 242.95 64.3556 243.309 62.8005 243.539C61.9291 243.668 60.5803 243.618 59.7858 243.986C59.0783 243.836 58.8261 244.077 59.0302 244.71C59.0378 244.907 59.0453 245.104 59.0529 245.301C59.2531 248.039 61.013 251.334 62.548 253.559C63.4441 254.859 64.5858 256.069 65.7203 257.161C67.0013 258.395 67.7398 259.265 69.5255 258.748C72.5353 257.877 75.1916 256.123 78.2423 255.35C80.6556 254.738 82.66 253.456 85.0134 252.792C87.9158 251.974 90.7878 251.041 93.7303 250.357C92.416 247.82 91.2406 245.179 89.5579 242.855C87.8321 240.47 85.9291 238.178 84.1572 235.819ZM100.082 150.449C105.511 151.53 111.397 152.531 116.257 155.334C118.153 156.428 120.557 158.119 121.113 160.381C121.777 163.086 119.166 164.761 116.986 165.605C114.368 166.618 111.518 167.007 108.744 167.326C107.276 167.496 105.8 167.588 104.325 167.672C103.131 167.74 101.106 167.477 100.015 167.951C99.3313 167.814 99.0943 168.091 99.304 168.782C99.2912 169.03 99.2787 169.279 99.2662 169.526L99.153 171.756C99.0777 173.241 99.0023 174.726 98.9266 176.211C98.7627 179.445 98.5984 182.68 98.4345 185.914C101.279 184.152 103.571 181.629 106.35 179.749C107.672 178.855 108.984 177.959 110.3 177.069C110.852 176.695 111.189 176.172 111.733 175.824C112.453 175.363 113.092 175.085 113.767 174.481C116.527 172.012 119.596 169.879 122.523 167.613C123.852 166.584 125.308 165.637 126.573 164.533C127.898 163.376 127.715 162.424 127.682 160.761C127.648 159 128.294 156.814 127.994 155.116C128.246 154.54 128.053 154.182 127.415 154.041C126.988 153.768 126.563 153.496 126.136 153.223C125.287 152.68 124.437 152.136 123.587 151.593C120.206 149.431 116.826 147.269 113.445 145.107C111.756 144.027 110.067 142.947 108.378 141.867C107.907 141.565 106.368 140.203 105.839 140.243C105.299 140.284 104.363 141.337 103.958 141.673C103.337 142.187 102.734 142.728 102.064 143.178C101.729 143.41 101.38 143.616 101.017 143.798C100.436 143.854 100.234 144.174 100.411 144.755C99.9006 146.392 100.181 148.73 100.082 150.449ZM175.38 227.615C174.15 221.867 172.564 215.06 167.768 211.15C162.904 207.185 155.793 208.717 151.989 213.374C150.083 215.706 148.902 218.464 148.024 221.322C147.123 224.255 145.796 228.076 146.039 231.178C146.145 232.538 147.31 233.999 147.976 235.186C148.663 236.411 149.119 238.168 150.739 237.744C153.25 237.085 155.803 235.574 158.153 234.493C160.529 233.398 163.032 232.498 165.496 231.441C167.132 230.74 168.831 230.206 170.463 229.494C172.01 228.82 174.052 228.657 175.38 227.615ZM248.035 193.378C251.465 194.606 253.247 192.641 255.66 190.428C257.947 188.333 260.423 186.317 262.528 184.04C264.7 181.691 266.416 178.916 268.086 176.203C269.773 173.461 272.054 170.5 273.093 167.447C273.622 165.894 273.848 164.173 274.181 162.568C274.261 162.181 274.799 160.743 274.628 160.418C274.393 159.971 272.895 159.923 272.484 159.858C269.211 159.341 265.743 159.315 262.461 159.778C256.11 160.673 250.799 164.234 248.791 170.462C246.438 177.763 247.569 185.878 248.035 193.378ZM225.798 130.054C225.745 131.318 228.775 131.669 229.56 131.964C231.375 132.644 233.18 133.363 234.942 134.169C238.571 135.828 242.441 136.908 245.916 138.914C253.407 143.237 261.539 146.285 269.107 150.42C270.286 151.065 272.591 152.617 273.938 152.486C274.653 152.416 274.12 152.993 274.585 151.855C274.751 151.445 274.807 150.912 274.901 150.474C275.181 149.159 275.398 147.832 275.713 146.525C276.231 144.373 276.76 142.376 276.979 140.164C277.072 139.227 277.173 138.291 277.184 137.348C277.195 136.393 277.415 133.999 276.984 133.172C276.698 132.623 276.641 132.811 275.926 132.657C275.517 132.568 275.087 132.384 274.692 132.261C273.765 131.972 272.837 131.695 271.865 131.61C270.905 131.526 270.292 131.234 269.391 131.064C268.446 130.886 267.476 131.102 266.513 130.854C265.474 130.585 264.978 130.341 263.892 130.443C262.84 130.542 262.537 130.309 261.506 130.022C260.646 129.783 259.62 129.95 258.724 129.878C257.638 129.789 256.556 129.653 255.47 129.568C250.587 129.181 245.646 129.754 240.751 129.709C238.09 129.684 235.485 130.077 232.827 129.956C230.505 129.85 228.104 129.875 225.798 130.054ZM238.502 155.791C236.126 156.696 233.923 158.165 231.721 159.431C229.181 160.89 226.751 162.44 224.4 164.19C220.449 167.133 215.837 170.662 214.797 175.797C213.73 181.067 218.306 185.385 222.597 187.541C227.491 190 233.184 191.271 238.544 192.211C237.971 180.079 238.106 167.926 238.502 155.791ZM167.436 184.353C165.995 184.751 164.775 185.604 163.438 186.235C162.24 186.8 161.081 187.227 159.963 187.954C158.14 189.14 156.027 190.156 154.121 191.073C149.406 193.341 144.828 196.159 140.16 198.673C138.923 199.34 138.518 199.761 138.099 201.133C137.644 202.623 137.215 204.123 136.776 205.618C136.367 207.013 135.715 208.504 135.887 209.976C136.037 211.257 136.699 212.465 137.198 213.633C138.456 216.573 139.819 219.465 141.228 222.335C142.492 224.912 143.645 227.645 145.268 230.013C146.528 223.436 147.66 216.067 152.548 211.056C157.433 206.048 165.225 205.977 169.932 211.146C172.168 213.602 173.529 216.695 174.599 219.802C175.16 221.435 175.538 223.099 175.899 224.785C176.285 226.586 176.19 227.542 178.178 226.996C179.756 226.562 181.429 226.216 182.976 225.722C183.779 225.466 184.562 225.178 184.598 224.544C184.644 223.743 183.566 222.104 183.248 221.35C181.604 217.462 179.959 213.574 178.315 209.686C176.529 205.464 174.743 201.242 172.957 197.02C172.066 194.914 171.174 192.807 170.283 190.701C169.47 188.781 168.792 185.93 167.436 184.353ZM238.635 151.52C238.662 149.601 238.693 147.681 238.718 145.761C238.734 144.617 239.244 142.405 238.247 141.588C237.629 141.081 235.797 140.693 235.015 140.346C233.474 139.662 231.804 139.357 230.253 138.678C224.179 136.017 217.858 133.801 211.604 131.657C210.255 131.194 208.877 130.816 207.52 130.36C206.787 130.115 204.072 128.671 203.394 129.049C202.8 129.379 202.352 133.316 202.162 134.133C201.712 136.068 201.282 138.008 200.868 139.952C199.263 147.497 197.917 155.095 196.664 162.707C199.991 161.443 203.179 159.255 206.323 157.562C209.588 155.805 212.841 154.051 216.129 152.334C217.056 151.849 220.321 149.621 221.085 150.496C222.31 151.899 219.39 153.545 218.624 154.146C215.659 156.471 212.527 158.499 209.356 160.527C206.07 162.629 202.651 164.486 199.349 166.55C198.157 167.295 196.254 168.202 195.785 169.461C195.183 171.079 195.618 173.047 196.167 174.593C197.514 178.393 198.99 182.147 200.551 185.864C201.261 187.554 201.989 189.237 202.73 190.913C203.613 192.909 204.772 193.332 206.696 194.25C214.893 198.164 223.408 201.879 231.281 206.409C229.963 207.927 226.752 205.433 225.451 204.802C223.043 203.632 220.633 202.466 218.226 201.293C213.743 199.108 209.282 196.879 204.774 194.746C207.663 201.318 211.073 207.65 214.854 213.75C213.9 214.074 214.132 214.091 213.533 213.517C213.029 213.033 212.69 212.086 212.348 211.479C211.641 210.225 210.944 208.966 210.232 207.715C208.755 205.118 207.224 202.561 205.875 199.894C204.861 197.888 204.075 194.382 201.99 193.371C199.392 192.11 196.759 190.883 194.161 189.605C194.161 199.597 194.879 209.367 195.933 219.297C195.987 219.798 196.467 221.276 195.499 221.131C195.062 221.066 194.915 218.326 194.839 217.754C194.486 215.131 194.188 212.501 193.944 209.867C193.457 204.609 193.193 199.33 193.159 194.05C192.535 199.184 191.912 204.317 191.288 209.451L190.402 216.748C190.247 218.025 190.092 219.303 189.936 220.581C189.865 221.168 189.91 221.935 189.704 222.495C189.379 223.376 189.489 223.308 188.471 223.71C189.444 217.025 190.342 210.329 191.137 203.621C191.525 200.348 191.888 197.072 192.223 193.793C192.313 192.911 192.401 192.029 192.488 191.147C192.531 190.697 192.919 189.251 192.704 188.877C192.491 188.507 191.078 188.121 190.671 187.932C189.78 187.519 188.889 187.106 187.999 186.69C185.11 185.34 182.223 183.978 179.366 182.562C178.116 181.943 176.805 180.985 175.446 180.655C174.093 180.326 173.108 181.268 171.951 181.866C171.051 182.332 168.929 182.953 168.327 183.744C167.767 184.481 169.506 187.429 169.963 188.516C171.251 191.582 172.54 194.649 173.828 197.715C176.441 203.932 179.053 210.15 181.666 216.367C182.305 217.887 182.943 219.407 183.582 220.927C183.991 221.901 184.674 224.676 185.667 224.785C186.107 224.833 186.828 224.355 187.253 224.217C187.887 224.013 188.472 224.016 189.108 223.908C190.273 223.71 191.483 223.109 192.627 222.687C195.568 221.603 198.617 220.903 201.582 219.891C204.56 218.873 207.49 217.731 210.457 216.713C213.152 215.789 215.87 214.737 218.459 213.534C221.192 212.263 223.996 211.142 226.659 209.733C231.511 207.167 236.31 204.771 240.596 201.623C241.604 200.883 242.678 200.14 243.675 199.348C244.549 198.652 246.217 197.794 246.812 196.88C247.039 196.531 247.234 195.847 246.969 195.434C246.684 194.989 245.425 195.03 244.837 194.951C242.982 194.702 241.127 194.452 239.272 194.203C239.414 195.423 239.558 196.642 239.661 197.867C239.734 198.731 240.245 201.015 239.556 201.692C238.609 200.792 238.913 198.1 238.828 196.901C238.783 196.26 238.946 195.005 238.659 194.437C238.344 193.814 237.475 193.822 236.688 193.652C233.347 192.929 230.037 192.323 226.805 191.178C221.344 189.244 214.817 185.978 213.597 179.679C212.326 173.112 217.913 167.423 222.617 163.76C225.434 161.567 228.431 159.669 231.53 157.907C232.979 157.083 234.426 156.259 235.884 155.454C236.414 155.161 238.155 154.557 238.435 154.044C238.721 153.52 238.575 152.118 238.635 151.52ZM121.808 252.368C121.543 252.497 121.277 252.627 121.013 252.756C123.96 244.358 126.879 235.998 129.343 227.442C130.533 223.312 131.738 219.187 132.968 215.069C133.499 213.293 134.803 210.847 134.441 209.007C134.048 207.015 133.108 204.897 132.381 203.003C127.723 205.93 122.968 208.708 118.233 211.503C113.989 214.009 109.672 216.238 105.398 218.718C103.207 219.988 100.948 220.846 98.6617 221.884C96.8041 222.728 97.5252 225.307 97.5521 227.03C97.646 233.113 97.6415 239.217 98.0105 245.29C98.1449 247.503 97.9715 250.044 99.3801 251.885C101.182 254.24 102.853 256.64 104.495 259.119C105.111 260.047 107.697 265.075 108.661 264.965C109.291 264.893 109.87 262.857 110.185 262.375C110.864 261.334 111.856 260.439 112.759 259.601C116.66 255.982 120.988 253.433 125.486 250.788C130.057 248.101 134.734 245.6 139.39 243.052C140.442 242.476 141.575 242.061 142.62 241.473C143.033 241.24 143.852 240.871 144.112 240.456C144.501 239.834 144.369 238.112 144.45 237.369C144.616 235.851 144.914 234.274 144.93 232.745C144.945 231.235 144.037 229.937 143.379 228.62C140.489 222.836 137.681 217.039 135.167 211.08C133.185 217.999 131.103 224.886 129.159 231.815C128.143 235.433 126.92 238.992 125.728 242.555C125.12 244.374 124.507 246.193 123.9 248.013C123.427 249.43 123.181 251.505 121.808 252.368ZM163.312 121.97C161.78 121.987 160.392 121.762 158.893 121.442C158.344 121.325 157.861 121.275 157.303 121.226C156.672 121.171 156.098 120.828 155.544 120.761C155.125 120.711 154.394 120.887 153.995 121.021C153.068 121.331 153.097 121.174 153.059 122.25C152.998 123.912 152.953 125.575 152.862 127.236C152.502 133.773 151.808 140.246 150.857 146.72C150.664 148.029 150.125 149.745 150.421 151.045C150.689 152.217 151.701 153.468 152.369 154.451C153.745 156.472 156.984 157.47 159.262 158.044C161.665 158.648 164.159 158.871 166.442 159.41C167.075 159.559 167.801 159.296 168.475 159.446C169.098 159.584 169.583 159.926 170.159 160.174C171.57 160.78 173.147 160.892 174.605 161.36C177.496 162.287 180.591 162.232 183.484 163.123C184.224 163.35 184.863 163.924 185.574 164.121C186.225 164.3 186.895 164.089 187.576 164.189C189.019 164.402 190.364 164.895 190.697 166.444C191.58 165.746 191.702 165.929 191.55 164.849C191.452 164.156 191.066 163.313 190.855 162.645C190.317 160.942 189.775 159.241 189.238 157.538C188.173 154.168 187.116 150.796 186.135 147.402C185.257 144.365 184.459 141.306 183.762 138.223C183.407 136.656 183.111 135.081 182.807 133.505C182.718 133.048 182.806 132.321 182.346 132.017C181.93 131.741 180.957 132.731 180.517 133.05C177.442 135.278 170.389 141.865 166.544 137.979C164.474 135.887 164.595 132.208 164.82 129.504C164.958 127.842 165.25 126.202 165.576 124.568C165.657 124.16 166.156 122.851 165.973 122.56C165.776 122.248 163.724 122.062 163.312 121.97ZM271.357 158.332C272.176 158.423 272.994 158.515 273.813 158.607C273.738 157.946 273.805 156.951 273.555 156.336C273.208 155.484 272.361 155.389 271.429 155.036C269.954 154.479 268.45 153.994 266.991 153.393C263.826 152.091 260.675 150.77 257.508 149.467C256.12 148.896 254.488 147.961 252.981 148.428C251.356 148.931 249.751 149.956 248.232 150.707C246.511 151.557 244.792 152.409 243.072 153.261C242.266 153.661 241.459 154.06 240.653 154.46C239.386 155.088 239.217 155.151 239.117 156.585C238.608 163.918 238.646 171.536 238.868 178.879C238.982 182.627 238.854 186.394 239.123 190.135C239.144 190.423 239.122 192.046 239.303 192.268C239.556 192.58 241.342 192.685 241.768 192.763C243.432 193.067 245.107 193.168 246.788 193.319C246.392 184.789 244.937 174.706 249.317 166.904C253.717 159.066 263.122 157.368 271.357 158.332ZM194.869 74.4186C195.362 73.295 196.212 72.3464 196.938 71.3607C197.331 70.8277 198.01 70.1906 198.261 69.5671C198.619 68.6798 198.617 68.8698 198.082 68.0926C197.577 67.3583 197.587 67.303 196.806 67.1716C196.148 67.0611 195.447 67.2489 194.775 67.1285C194.096 67.0066 192.228 66.4342 192.657 65.3531C192.638 65.4004 193.718 64.8678 193.802 64.7754C194.074 64.4798 194.16 63.8495 194.294 63.4921C194.725 62.3466 194.877 61.6051 194.396 60.3854C193.678 58.5642 190.838 58.0251 189.07 58.638C188.186 58.9439 187.682 59.5927 187.285 60.4081C187.032 60.9259 186.974 61.6743 186.647 62.1252C186.155 62.8039 186.125 62.7286 185.105 62.6086C183.806 62.456 182.741 61.9571 181.51 61.6092C180.17 61.2299 179.298 62.0014 178.127 62.6234C176.012 63.7469 173.97 64.1368 171.601 64.3151C168.964 64.5138 166.519 63.8779 163.907 63.714C164.585 66.8351 166.337 69.3691 167.738 72.1954C167.984 72.6924 168.382 73.2004 168.391 73.7754C168.401 74.3171 167.617 75.0542 167.705 75.5024C167.894 76.4586 169.998 77.224 170.795 77.4932C173.05 78.2537 175.618 79.7425 178.1 79.1444C179.461 78.8166 180.193 76.6679 181.473 76.5101C183.191 76.2973 181.906 78.5096 181.587 79.2705C184.025 79.6411 187.116 79.3269 189.45 78.5001C190.619 78.086 191.61 77.4678 192.678 76.8549C194.007 76.0918 194.284 75.8821 194.869 74.4186ZM152.201 120.87C147.854 120.943 143.444 120.317 139.087 120.892C138.078 121.025 137.082 121.239 136.09 121.467C135.377 121.631 133.113 121.769 132.638 122.299C132.205 122.783 132.201 125.008 132.112 125.636C131.913 127.032 131.966 127.515 132.857 128.595C135.788 132.148 138.84 135.596 141.728 139.19C144.502 142.641 146.779 146.498 149.583 149.901C151.081 145.542 151.17 140.31 151.581 135.74C151.801 133.303 152 130.864 152.187 128.424C152.366 126.101 152.972 123.086 152.201 120.87ZM95.9376 166.81C96.4403 166.81 97.2421 166.967 97.7308 166.81C98.4027 167.024 98.6272 166.772 98.405 166.054C98.4156 165.803 98.4262 165.552 98.4372 165.3C98.5072 163.681 98.5844 162.063 98.6594 160.444C98.7283 158.963 98.7953 157.483 98.8536 156.002C98.8937 154.992 99.4044 152.486 98.9959 151.573C98.7215 150.96 98.0715 151.099 97.2807 151.009C96.5285 150.924 95.7741 150.845 95.0261 150.729C94.0767 150.581 93.0243 150.241 92.0582 150.454C91.0876 150.668 90.382 151.564 89.6204 152.134C88.4151 153.035 87.1836 153.903 85.9681 154.79C83.7589 156.404 81.572 158.047 79.3814 159.685C78.4766 160.361 78.3029 160.126 78.7439 161.098C79.0168 161.698 79.6373 162.378 80.0151 162.92C80.7672 164.001 81.5164 165.638 82.4813 166.515C83.8854 167.791 87.781 166.981 89.6461 166.972C91.7728 166.961 93.823 166.994 95.9376 166.81ZM101.442 166.704C103.287 166.524 105.15 166.602 106.983 166.354C108.976 166.084 110.954 165.685 112.943 165.385C114.926 165.087 120.958 163.882 120.362 160.922C119.733 157.794 115.115 155.92 112.56 154.868C108.569 153.226 104.403 152.346 100.205 151.418C99.6788 154.222 99.7545 157.233 99.6584 160.074C99.6061 161.618 99.5603 163.163 99.5611 164.708C99.5611 165.08 99.4335 165.851 99.5853 166.197C99.9419 167.01 100.357 166.704 101.442 166.704ZM95.3773 168.048H83.606C85.3481 171.654 86.9948 175.328 88.8727 178.866C90.7431 182.39 93.1515 185.711 95.2736 189.093C95.8112 188.508 96.6686 187.874 97.0339 187.178C97.4386 186.408 97.4272 185.275 97.4934 184.383C97.6653 182.07 97.7437 179.736 97.802 177.417C97.8531 175.386 97.9424 173.368 98.0984 171.342C98.1324 170.898 98.6227 168.59 98.3421 168.211C98.0919 167.873 95.8922 168.052 95.3773 168.048ZM143.856 97.2451C145.842 97.2447 147.83 97.2198 149.816 97.2531C151.618 97.2837 153.965 96.9699 155.616 97.8977C158.979 99.7874 152.257 104.641 150.894 105.862C153.097 106.661 156.537 105.076 158.695 104.349C161.363 103.451 164.084 102.848 166.805 102.145C167.485 101.969 170.404 101.625 170.772 101.104C171.138 100.588 170.319 97.4703 170.237 96.8128C170.16 96.1946 170.225 95.2309 169.967 94.6494C170.125 93.951 169.88 93.7061 169.231 93.9158C169.007 93.915 168.784 93.9139 168.56 93.9131C166.904 93.9264 165.247 94.0032 163.592 94.0581C157.905 94.2474 152.355 94.4999 146.717 95.3876C144.095 95.8002 141.451 96.3078 138.843 96.8143C136.648 97.2406 137.017 97.5983 139.067 97.6036C140.671 97.6078 142.261 97.3697 143.856 97.2451ZM307.003 55.423C307.341 55.035 307.679 54.6466 308.017 54.2582C307.194 54.0231 306.37 53.7876 305.547 53.5526C304.671 53.3027 304.2 53.3599 304.589 52.3817C305.077 51.1563 307.304 51.0159 308.375 50.9697C312.061 50.8103 315.933 51.9831 319.434 53.0162C321.143 53.5204 322.482 54.3006 323.928 55.3382C324.559 55.7913 325.287 56.2168 325.84 56.7611C326.414 57.3267 326.652 58.0512 327.213 58.6183C328.134 59.548 329.311 60.011 329.763 61.353C330.28 62.8933 329.662 64.6566 328.896 65.9996C328.118 67.3628 326.963 68.3936 326.025 69.6322C325.281 70.6149 323.726 73.3 326.155 72.9888C327.44 72.8241 329.107 70.6331 330.031 69.7602C331.357 68.5083 332.66 67.2277 334.064 66.0617C335.309 65.0279 336.743 63.968 338.407 63.7863C340.161 63.5947 341.038 64.7175 341.893 66.0829C342.699 67.3708 342.829 68.6279 343.396 69.946C343.669 70.5816 344.018 70.9359 344.179 71.6287C344.426 72.6943 344.451 73.8568 344.578 74.9433C344.776 76.6494 344.963 77.991 344.632 79.6626C344.322 81.2272 344.238 82.889 343.977 84.4808C343.682 86.2835 343.436 88.0944 343.145 89.8978C342.899 91.4257 341.961 93.6016 342.881 95.0223C345.091 98.4364 347.742 93.4104 348.44 91.5328C349.668 88.2334 350.292 84.6265 351.375 81.2593C351.955 79.4586 352.461 77.6408 352.794 75.7764C353.069 74.2346 352.933 72.3562 353.778 70.9829C354.435 69.9161 355.603 69.106 356.885 69.4316C358.49 69.8393 359.106 72.1583 359.578 73.568C360.824 77.2861 360.365 80.6347 359.858 84.4267C359.623 86.1824 359.399 87.9408 358.996 89.6673C358.724 90.8321 357.597 93.1897 359.272 93.823C361.648 94.7217 364.166 87.9071 364.842 86.3683C366.615 82.3378 367.294 78.3407 368.024 74.0222C368.192 73.0293 368.32 72.0152 368.571 71.0393C368.79 70.1898 369.442 69.3313 369.501 68.4818C369.56 67.6316 368.997 67.0384 369.574 66.2037C370.054 65.509 370.921 65.467 371.704 65.461C373.545 65.4466 375.306 66.2548 377.018 66.8412C378.61 67.3867 380.968 68.5836 382.687 68.1983C377.296 62.7256 371.919 57.315 365.49 53.0529C362.505 51.0734 359.518 49.1712 356.291 47.5571C353.023 45.9221 349.277 44.8179 345.777 43.8288C343.873 43.2905 341.98 42.6806 340.1 42.0632C338.426 41.5136 336.742 41.4095 335.103 40.786C331.543 39.4319 327.565 38.9072 323.878 37.9472C322.251 37.5236 320.605 37.1602 318.974 36.7677C317.259 36.3551 314.85 35.6385 313.103 35.7081C311.61 35.7676 311.107 37.4775 310.389 38.6669C309.347 40.3934 308.459 42.1874 307.639 44.029C305.961 47.8024 304.189 51.7007 302.988 55.6429C302.329 57.8075 301.678 59.9743 301.03 62.1422C300.47 64.0191 299.068 66.7265 299.44 68.6525C302.201 64.398 304.772 59.9796 307.003 55.423ZM178.473 93.8397C177.008 93.9063 175.544 93.9725 174.079 94.0392C175.539 98.8392 175.336 103.95 175.336 108.926C182.161 108.121 189.04 107.984 195.906 108.04C194.644 105.607 195.133 102.45 195.493 99.8442C195.703 98.3191 195.821 96.8499 195.79 95.3111C195.761 93.8677 196.177 92.6541 194.648 92.2078C193.434 91.8538 192.668 92.4436 191.512 92.7127C190.128 93.0349 188.62 93.0739 187.21 93.2491C184.277 93.6137 181.449 93.8276 178.473 93.8397ZM139.146 103.188C143.544 101.968 148.218 102.417 152.639 101.49C151.633 100.572 149.739 101.116 148.404 101.192C146.886 101.279 145.369 101.342 143.851 101.416C142.37 101.488 138.264 101.376 137.73 103.259C138.202 103.236 138.674 103.211 139.146 103.188ZM300.082 35.1698C294.327 35.6748 288.299 35.5965 282.586 36.6007C276.042 37.7508 269.22 38.4723 262.875 40.499C256.651 42.4876 250.304 43.8795 244.168 46.2144C238.204 48.4842 232.459 50.8989 226.842 53.9349C224.093 55.4207 221.418 56.9958 218.797 58.7024C216.239 60.3683 213.435 61.7341 210.956 63.5001C208.749 65.0722 206.845 66.5141 204.921 68.4402C202.864 70.4995 200.862 72.6144 198.803 74.6703C197.085 76.3855 198.173 80.5791 198.282 82.8617C198.433 86.0264 198.694 89.1464 199.082 92.2903C199.451 95.2861 199.831 98.5061 199.343 101.495C199.138 102.752 198.431 104.923 198.769 106.178C199.039 107.182 200.831 107.919 201.745 108.247C202.863 108.647 204.005 108.478 205.152 108.988C206.434 109.557 207.514 110.268 208.875 110.567C210.553 110.936 212.438 111.247 214.162 111.258C215.756 111.268 217.356 111.784 218.945 112.102C221.531 112.62 224.055 112.782 223.894 115.9C223.708 119.497 222.28 122.584 221.43 126C222.58 126 223.381 126.073 224.434 125.665C225.662 125.19 226.973 125.064 228.264 124.858C231.117 124.405 233.898 124.259 236.77 123.97C242.03 123.439 247.382 123.502 252.646 123.558C255.312 123.586 258.203 123.792 260.832 124.207C263.529 124.633 266.322 124.899 268.935 125.716C271.14 126.405 273.416 126.874 275.665 127.483C276.679 127.757 277.893 127.98 278.851 128.286C280.239 128.731 280.98 129.679 282.582 129.658C282.132 126.69 281.072 123.937 280.433 120.993C279.766 117.92 278.436 115.2 276.967 112.3C276.311 111.007 275.827 109.634 275.195 108.33C274.492 106.879 273.505 105.677 272.656 104.32C270.921 101.545 269.068 98.8755 267.363 96.0807C265.874 93.6406 264.174 91.3015 262.544 88.9462C260.753 86.3565 258.264 84.4021 256.231 82.0263C255.372 81.0228 254.555 80.0904 253.594 79.1694C252.709 78.3214 251.452 76.4446 250.097 76.3568C249.318 76.306 247.968 76.7444 247.224 76.9795C245.849 77.4152 244.39 77.6991 242.969 78.0826C241.414 78.5024 239.886 79.0486 238.329 79.4476C237.706 79.607 236.966 79.5313 236.375 79.7118C235.757 79.9011 235.264 80.3179 234.588 80.5091C231.255 81.4547 227.941 82.5283 224.583 83.3891C221.126 84.2756 217.615 85.0305 214.265 86.2861C213.626 86.5257 212.915 87.092 212.424 86.7199C212.058 86.4421 211.822 85.6573 211.918 85.1993C212.24 83.6745 214.679 83.1237 215.853 82.5116C219 80.871 222.126 79.7141 225.508 78.6C227.174 78.0519 228.834 77.4667 230.523 76.9931C231.935 76.5975 233.405 75.9282 234.849 75.7257C236.133 75.5455 237.045 75.0398 238.319 74.592C240.197 73.9322 242.128 73.3904 244.036 72.8268C247.297 71.863 250.754 71.458 254.091 70.8118C261.822 69.3146 269.848 68.5651 277.737 68.6578C281.714 68.7048 285.874 68.5885 289.804 69.2427C290.752 69.4002 292.745 69.3699 293.398 70.2205C293.749 70.677 293.559 71.3565 293.649 71.8513C293.801 72.6863 294.257 73.0755 294.651 73.8364C295.491 69.7193 296.455 65.6896 297.538 61.6327C298.518 57.9611 299.425 54.223 300.734 50.6029C302.119 46.7727 303.798 42.7117 305.868 39.2063C306.294 38.4848 307.357 37.3385 307.448 36.5315C307.543 35.6987 306.376 35.0536 305.574 34.9609C303.775 34.753 301.849 35.1089 300.082 35.1698ZM338.746 93.9983C339.332 88.2871 341.044 82.3132 340.088 76.5793C339.683 74.1521 339.367 71.835 338.153 69.6439C337.539 68.5359 337.293 67.722 336.121 68.3754C334.934 69.0367 333.842 70.6702 332.859 71.6169C331.051 73.3571 329.158 75.1492 326.994 76.4416C325.289 77.4591 321.902 78.4236 320.62 76.2224C319.399 74.1245 321.028 71.1968 322.197 69.466C323.535 67.4858 326.07 65.6518 324.648 63.2086C324.036 62.157 323.155 61.8814 322.229 61.1913C321.427 60.594 320.756 59.8202 319.954 59.2123C317.631 57.4501 315.084 56.6953 312.402 55.6883C311.163 55.2231 311.001 54.7855 310.285 55.8488C309.508 57.0038 309.083 58.6225 308.521 59.8997C307.396 62.4583 306.196 64.8825 304.745 67.2682C303.282 69.6757 301.984 72.1908 300.601 74.6461C300.079 75.5724 299.588 76.5139 298.971 77.3834C298.635 77.8566 298.219 78.2783 297.946 78.7961C297.542 79.5619 297.721 80.26 297.47 81.0224C296.385 84.312 294.803 79.7198 294.5 78.6462C294.157 77.425 293.327 76.473 292.79 75.3339C292.346 74.3932 292.043 72.9952 290.971 72.5523C290.093 72.1897 288.961 72.6875 288.065 72.7359C286.418 72.8253 284.759 72.692 283.105 72.795C281.559 72.8911 280.016 73.0395 278.47 73.1342C276.922 73.2292 275.377 72.9676 273.85 73.1304C271.109 73.4226 268.308 73.3757 265.574 73.7807C262.365 74.2554 259.189 74.7619 255.972 75.1571C256.719 76.571 258.269 77.1843 259.494 78.1931C260.59 79.0948 261.457 80.1354 262.56 80.9932C263.679 81.8639 264.344 83.1517 265.271 84.198C266.178 85.2228 267.019 86.0821 267.814 87.2287C271.652 92.7654 275.611 98.0976 278.777 104.082C280.379 107.11 281.909 110.351 283.004 113.6C284.178 117.086 284.755 120.823 285.452 124.427C285.8 126.223 285.982 127.74 285.601 129.546C285.501 129.976 285.397 130.405 285.289 130.833C284.955 131.346 285.079 131.678 285.66 131.831C286 132.326 286.464 132.512 286.494 133.19C286.516 133.705 286.23 134.301 285.787 134.592C284.931 135.152 284.931 134.395 284.048 134.563C283.717 134.742 283.387 134.921 283.056 135.099C282.882 134.834 282.702 134.571 282.517 134.312C281.955 133.777 281.507 133.826 280.772 133.696C281.146 137.999 280.55 141.84 279.603 146.038C279.147 148.056 278.366 150.032 277.973 152.054C277.533 154.313 278.494 155.341 279.98 156.848C279.603 157.045 278.942 157.259 278.631 157.553C278.136 158.022 278.262 158.08 278.262 158.814C278.263 160.157 278.005 161.482 277.794 162.803C277.404 165.251 277.047 167.783 276.204 170.126C274.673 174.383 272.2 178.802 269.679 182.551C268.269 184.649 266.855 187.033 265.087 188.843C263.313 190.659 261.554 192.492 259.784 194.314C256.3 197.9 252.493 200.378 248.32 203.063C246.667 204.127 244.926 205.292 243.504 206.616C242.06 207.961 240.139 208.903 238.412 209.881C237.642 210.317 237.094 210.943 236.262 211.301C235.481 211.637 234.935 211.746 234.28 212.187C232.654 213.28 230.898 214.215 229.107 215.039C226.924 216.045 224.775 217.215 222.533 218.073C221.511 218.464 220.55 218.89 219.56 219.347C218.49 219.842 217.334 220.167 216.236 220.694C215.307 221.14 214.368 221.399 213.423 221.763C212.651 222.06 212.046 222.542 211.258 222.853C209.624 223.499 208.137 223.846 206.549 224.607C204.44 225.618 201.94 226.09 199.718 226.817C197.237 227.63 194.663 228.439 192.117 229.015C191.033 229.26 190.11 229.581 189.064 229.952C188.382 230.194 187.601 230.326 186.845 230.556C184.759 231.193 182.673 231.806 180.575 232.347C176.476 233.404 172.288 234.673 168.313 236.108C166.229 236.861 164.115 237.766 162.115 238.725C159.855 239.807 157.419 240.432 155.151 241.504C150.768 243.574 146.401 245.706 142.069 247.879C139.794 249.021 137.551 250.197 135.33 251.439C134.524 251.889 133.643 252.075 132.842 252.517C131.795 253.095 130.936 253.943 129.864 254.516C125.73 256.724 121.511 258.804 117.714 261.597C115.727 263.059 113.592 264.556 111.875 266.336C111.308 266.923 110.326 267.832 110.224 268.684C110.073 269.945 110.214 268.785 110.651 269.563C111.255 269.636 111.392 269.869 111.062 270.259C110.91 270.442 110.715 270.536 110.478 270.54C109.714 270.694 108.286 269.885 107.672 269.547C106.609 268.961 106.044 268.22 105.362 267.236C103.878 265.102 102.431 262.948 100.904 260.844C99.53 258.952 98.1854 256.868 96.6224 255.13C95.5625 253.952 95.483 254.467 94.3042 255.131C93.4271 255.625 92.4084 255.836 91.4995 256.301C88.0361 258.075 84.2291 259.385 80.6768 260.622C79.8678 260.903 79.4366 261.35 78.7257 261.739C77.8202 262.234 76.6732 262.477 75.7049 262.829C73.0373 263.799 70.3829 264.805 67.7342 265.826C65.6892 266.615 63.7242 267.236 62.1233 268.69C61.4862 269.27 60.7151 269.685 60.0572 270.27C59.291 270.951 58.2549 272.06 57.2904 272.445L56.7029 272.904C56.3054 272.627 55.9075 272.351 55.5089 272.076C55.1137 271.803 54.7181 271.53 54.3237 271.256C53.333 270.567 52.3495 269.869 51.3649 269.171C49.1319 267.589 46.8844 266.021 44.8073 264.235C41.1176 261.062 37.2888 258.059 33.4307 255.088C29.3813 251.969 25.4334 248.705 21.2452 245.773C17.4491 243.116 13.3074 240.872 9.62672 238.068C7.7741 236.657 5.92602 235.236 4.03441 233.868C3.93145 233.794 2.39228 232.85 2.37789 232.745C2.35063 232.552 2.85713 232.048 3.00666 231.886C3.71455 231.116 4.49889 230.431 5.20413 229.653C8.49107 226.029 12.7827 226.155 17.3188 225.984C19.3759 225.906 21.6067 226.855 23.5604 227.501C25.9494 228.291 28.254 229.45 30.5616 230.451C35.3174 232.513 40.2257 234.276 45.0295 236.186C46.9185 236.937 48.8003 237.304 50.7206 237.82C52.669 238.344 54.6761 237.845 56.76 237.882C57.8415 237.902 58.864 237.965 59.9531 237.903C60.5996 237.867 61.3446 237.744 61.9832 237.755C62.5007 237.765 63.0379 237.978 63.5141 237.924C65.5988 237.688 67.8008 237.356 69.951 237.085C72.0856 236.816 74.2884 236.683 76.395 236.261C77.4557 236.049 78.5024 235.75 79.5229 235.39C80.4088 235.078 82.0191 234.723 82.7459 234.09C83.3963 233.524 83.112 233.517 82.7493 232.594C82.6059 232.229 82.4575 231.675 82.2447 231.324C81.6697 230.373 81.114 230.075 81.4486 228.886C82.038 226.79 84.047 225.452 85.7667 224.42C89.6408 222.096 93.184 219.114 97.2633 217.142C105.669 213.08 113.329 207.802 121.526 203.341C130.536 198.437 139.06 192.682 148.195 187.985C156.699 183.613 165.164 179.215 173.738 174.981C177.925 172.914 182.66 171.023 186.459 168.312C184.354 168.051 182.243 167.714 180.131 167.527C179.151 167.44 178.16 167.521 177.186 167.365C176.097 167.191 175.067 166.75 173.979 166.567C172.11 166.251 170.429 165.61 168.557 165.374C166.551 165.121 164.586 164.531 162.57 164.366C158.354 164.02 154.548 162.465 150.851 160.505C149.937 160.02 149.185 160.297 148.308 159.967C147.825 159.786 147.312 159.061 146.77 158.671C145.275 157.598 143.993 156.332 142.573 155.16C139.588 161.859 133.726 166.416 128.132 170.91C125.299 173.186 122.223 175.115 119.361 177.348C117.142 179.08 115.126 180.63 112.757 182.006C110.483 183.328 108.346 185.112 106.177 186.699C104.707 187.775 102.984 188.587 101.421 189.521C100.144 190.285 97.6505 191.423 97.3023 192.807C97.0172 193.938 97.5733 195.285 95.8471 194.764C94.3015 194.299 93.181 192.583 92.2808 191.374C89.9527 188.247 87.781 185.013 85.6195 181.771C84.4585 184.037 82.4559 185.669 80.6048 187.349C79.4802 188.37 78.3127 189.317 77.098 190.228C76.5089 190.67 75.9131 191.103 75.3229 191.544C75.0905 191.719 74.5636 191.986 74.4129 192.231C74.0609 192.805 74.2747 192.545 74.3296 193.239C74.4152 194.326 74.7778 195.181 74.1627 196.223C73.585 197.2 72.3256 197.618 71.4428 198.286C69.3426 199.875 67.1342 201.565 64.8042 202.806C64.2754 203.088 63.7753 203.332 63.2828 203.677C62.4606 204.252 62.6109 204.46 61.7822 203.909C60.4865 203.046 59.3671 201.614 58.1977 200.574C55.7478 198.394 53.2705 196.242 50.7615 194.131C45.9801 190.107 41.0574 186.283 36.3353 182.187C31.8479 178.295 27.0373 174.945 22.4047 171.244C21.1339 170.229 19.8786 169.194 18.6245 168.158C17.5077 167.236 15.6956 166.22 14.8696 165.041C13.67 163.327 18.3625 160.986 19.7783 160.637C22.2195 160.037 25.3763 160.38 27.8213 160.873C30.3879 161.39 33.0014 163.118 35.398 164.195C38.0994 165.408 40.8507 166.457 43.5721 167.602C44.7857 168.113 46.0724 168.521 47.199 169.209C48.3945 169.939 49.4616 170.772 50.7328 171.384C52.1977 172.089 53.7199 172.747 55.2606 173.268C55.9586 173.505 56.71 173.742 57.4437 173.837C58.4824 173.973 58.3416 173.494 59.2043 173.227C59.9376 173 60.1117 173.6 60.7711 173.767C61.3919 173.924 61.856 173.765 62.3936 173.431C63.5921 172.687 64.6588 171.661 65.8577 170.887C66.9699 170.168 68.196 169.496 69.2385 168.682C69.7034 168.32 70.0471 167.823 70.5051 167.454C71.2392 166.864 71.5303 167.098 72.3873 166.692C73.088 166.359 73.7236 165.739 74.3902 165.329C74.804 165.074 75.8075 164.753 76.0744 164.34C76.7754 163.258 75.5788 162.506 74.5072 162.825C74.3467 161.891 73.5226 159.672 73.8784 158.795C74.1934 158.02 75.0201 158.165 75.7155 157.755C78.329 156.212 80.2577 153.408 82.7028 151.595C85.0078 149.886 87.0413 147.846 89.3247 146.105C91.2807 144.614 93.4184 143.158 95.1994 141.55C97.3053 139.649 100.001 138.17 102.291 136.473C104.656 134.72 106.854 132.77 109.194 130.997C111.445 129.292 113.656 127.511 115.969 125.887C118.048 124.428 120.228 123.095 122.263 121.616C123.379 120.806 124.598 120.094 125.871 119.562C127.137 119.033 128.244 118.412 129.48 117.843C131.937 116.711 135.135 115.928 137.806 115.604C140.743 115.247 143.692 114.927 146.657 114.924C148.236 114.923 149.77 115.224 151.34 115.319C152.782 115.406 154.342 115.771 155.774 115.723C156.422 115.702 156.986 115.427 157.614 115.516C158.138 115.59 158.594 115.906 159.157 115.961C160.409 116.085 161.669 115.962 162.936 116.124C165.845 116.495 168.759 117.025 171.675 117.321C174.782 117.635 177.862 117.695 180.952 118.225C183.972 118.742 187.011 119.279 190.014 119.877C196.395 121.149 202.843 122.391 209.123 124.28C210.591 124.721 212.068 125.141 213.479 125.746C214.164 126.039 214.822 126.395 215.536 126.615C216.559 126.929 216.76 127.048 217.287 126.19C218.194 124.713 218.694 122.759 219.352 121.152C220.003 119.562 220.793 117.959 221.171 116.299C220.073 116.125 218.689 116.463 217.557 116.501C216.172 116.549 214.803 116.519 213.42 116.511C210.633 116.494 208.454 115.671 205.816 114.806C203.594 114.078 200.634 113.66 198.939 111.991C198.029 111.097 197.727 110.939 196.36 111.1C194.982 111.261 193.62 111.54 192.228 111.586C186.982 111.76 181.76 112.676 176.49 112.856C175.065 112.905 171.499 113.581 171.733 111.163C171.781 110.661 172.166 110.226 172.241 109.709C172.321 109.155 172.182 108.593 172.096 108.052C171.889 106.771 171.674 105.491 171.468 104.21C166.663 105.753 161.797 107.002 156.9 108.224C154.87 108.73 151.607 109.895 149.509 109.256C147.481 108.639 148.656 105.781 149.287 104.413C145.257 105.333 140.958 106.837 136.848 107.182C135.598 107.288 134.381 107.564 134.09 106.053C133.858 104.848 134.728 103.375 135.172 102.317C132.018 102.036 128.751 102.063 129.345 98.0196C129.889 94.3102 132.97 93.5717 136.251 92.8941C140.301 92.0571 144.436 91.7781 148.512 91.1009C152.058 90.5115 155.927 89.8543 159.549 90.1519C161.466 90.309 163.395 90.3449 165.312 90.5225C166.216 90.6061 167.086 90.7462 167.961 90.993C168.768 91.2201 169.897 91.9246 170.725 91.9371C171.974 91.9568 173.48 90.2677 174.824 89.8774C176.488 89.3936 178.281 89.3058 180 89.1873C181.949 89.0537 183.901 88.9791 185.848 88.8213C186.292 88.7853 187.97 88.8951 188.321 88.635C188.831 88.2561 188.491 86.3126 188.456 85.5142C188.423 84.7757 188.565 83.3925 188.053 83.1029C187.572 82.8311 186.171 83.204 185.698 83.2797C183.736 83.5939 181.873 83.5579 179.919 83.478C179.016 83.4413 178.149 83.6817 177.256 83.5632C176.297 83.4364 175.332 83.1139 174.376 82.9344C172.308 82.5457 170.423 82.0619 168.64 80.9028C167.075 79.8856 165.223 79.197 164.349 77.4156C163.709 76.1111 163.448 73.5937 165.331 73.2227C164.049 71.3728 163.164 69.2945 162.484 67.1569C162.361 66.7692 162.279 66.1855 162.094 65.8475C161.443 64.652 162.047 65.7123 161.118 65.2342C160.201 64.7622 159.539 64.3885 158.821 63.5675C157.678 62.2581 157.196 60.6466 157.052 58.9405C156.856 56.6234 156.489 54.0106 156.828 51.7052C157.413 47.7119 160.332 44.7115 163.297 42.2964C164.907 40.9851 167.027 40.4968 168.915 39.7011C170.738 38.9326 172.774 38.1271 174.694 37.9469C176.428 37.7841 178.118 37.2182 179.853 36.9899C182.238 36.6757 184.625 36.793 187.022 36.6977C188.125 36.6537 189.225 36.4982 190.324 36.3797C190.944 36.3127 191.992 36.3842 192.56 36.1385C193.489 35.7358 192.987 36.5814 193.319 35.3496C193.951 33.0064 194.466 30.8089 195.423 28.532C196.314 26.4106 197.396 24.3823 198.827 22.5687C200.169 20.8675 201.908 19.6232 203.489 18.17C204.66 17.0934 205.988 16.1209 207.324 15.2502C208.088 14.7524 208.939 14.4833 209.685 14.0438C210.612 13.4987 211.43 13.0853 212.472 12.7514C214.709 12.0352 216.93 11.2747 219.306 11.3122C221.867 11.3523 224.435 10.7561 226.929 11.512C231.56 12.9161 233.829 17.9349 233.752 22.5437C235.335 22.1485 236.72 21.3876 238.397 21.3225C239.943 21.2627 241.779 21.3967 243.297 21.6837C246.243 22.2405 249.272 23.8781 251.029 26.3599C252.704 28.727 252.955 31.8696 251.925 34.5551C251.432 35.8406 250.651 36.9842 249.818 38.0703C249.208 38.8667 247.846 39.7484 247.781 40.8155C259.184 37.3688 270.632 34.9393 282.428 33.3668C288.407 32.5699 294.396 32.9689 300.381 32.5135C302.938 32.319 305.716 32.5911 308.359 32.6014C309.475 32.6059 310.344 32.4507 311.153 31.7284C311.972 30.9978 312.626 30.103 313.581 31.1576C313.825 31.4267 313.876 32.0778 314.204 32.2804C314.601 32.5257 315.757 32.3572 316.233 32.3864C317.895 32.4878 319.517 32.7698 321.149 33.0946C324.143 33.6908 327.118 34.2935 330.077 35.0502C335.71 36.4913 341.269 37.8852 346.822 39.5958C352.487 41.3413 358.212 43.4949 363.436 46.3204C365.966 47.6888 368.493 49.3972 370.819 51.0901C371.901 51.8775 372.87 52.7292 373.811 53.6786C374.816 54.6935 376.046 55.3783 377.042 56.4008C379.208 58.6247 381.366 60.9839 383.33 63.3933C384.356 64.6513 385.299 65.9781 386.211 67.3189C386.855 68.2596 388.543 69.982 388.153 71.1971C387.949 71.846 387.222 72.2998 386.559 72.1409C386.336 72.0879 386.154 71.8002 385.965 71.7729C385.322 71.682 385.905 71.4564 385.159 71.7597C383.671 72.3627 383.198 73.5721 381.309 73.2969C378.1 72.8287 375.081 71.313 372.162 69.9915C371.328 73.1788 371.21 76.4832 370.481 79.7088C369.769 82.8557 368.582 85.8568 367.149 88.7433C365.893 91.2758 364.279 93.9748 362.054 95.7847C360.357 97.1656 356.167 98.8812 354.92 95.941C354.391 94.6922 355.178 92.7517 355.401 91.4666C355.701 89.7419 356.031 88.0123 356.211 86.2702C356.357 84.8548 356.431 83.4311 356.567 82.0142C356.685 80.7952 357.011 78.1783 356.325 77.1017C355.912 76.4529 355.876 77.0896 355.636 77.7373C355.344 78.5228 355.102 79.3019 354.889 80.1108C354.435 81.8298 354.027 83.5606 353.598 85.2856C352.831 88.3678 351.988 91.3825 350.391 94.1539C348.973 96.6148 346.977 99.3146 343.944 99.7178C342.524 99.9063 340.673 99.2571 339.589 98.3005C338.373 97.2273 338.737 95.4572 338.746 93.9983Z" fill="white"/>
<path fill-rule="evenodd" clip-rule="evenodd" d="M269.491 219.856C271.158 219.527 272.561 218.197 273.922 217.198C275.658 215.923 277.305 214.534 278.991 213.195C282.167 210.672 285.05 207.905 287.79 204.896C293.198 198.959 297.269 191.316 299.12 183.508C300.056 179.557 301.214 174.927 300.682 170.844C300.498 169.426 300.216 169.166 298.825 169.005C298.197 168.932 296.603 168.751 296.037 168.998C294.572 169.639 293.781 172.364 293.346 173.734C292.062 177.777 291.306 181.965 290.146 186.042C289.009 190.038 287.176 194.093 285.364 197.829C281.33 206.144 275.725 213.1 269.491 219.856ZM302.555 173.952C301.558 185.274 298.415 196.062 291.367 205.179C288.016 209.513 284.076 213.284 279.806 216.709C275.397 220.246 270.893 223.577 265.89 226.214C264.559 226.917 263.226 227.616 261.878 228.286C261.13 228.657 259.244 230.025 258.382 229.808C257.692 229.635 257.511 229.101 257.403 228.406C257.162 226.846 258.175 226.067 259.2 225.065C263.317 221.04 267.446 217.001 271.295 212.72C278.897 204.265 284.608 194.14 287.782 183.215C288.759 179.851 289.632 176.45 290.687 173.11C291.33 171.075 292.242 167.453 294.378 166.439C295.524 165.895 296.859 166.424 298.063 166.098C299.193 165.792 299.942 165.168 300.905 166.214C302.595 168.05 302.67 171.652 302.555 173.952Z" fill="#122888"/>
<path fill-rule="evenodd" clip-rule="evenodd" d="M1.40447 239.279C0.560685 239.578 0.525479 239.875 0.138982 239.007C-0.0555919 238.569 -0.00297367 237.97 0.0428309 237.515C0.15261 236.426 0.725732 235.421 1.19665 234.455C5.62869 238.111 10.2307 241.406 14.983 244.636C20.0654 248.091 24.9181 251.931 29.7249 255.758C34.0294 259.185 38.3857 262.51 42.6451 265.98C44.6995 267.654 47.0416 268.951 48.9945 270.675C50.5727 272.069 53.19 272.694 54.5353 274.333C52.4033 275.607 49.557 276.633 47.1945 275.531C44.5882 274.315 42.5891 272.73 40.2697 271.082C39.0746 270.233 37.8319 269.462 36.6179 268.641C35.5507 267.918 34.7971 266.864 33.7167 266.186C31.4461 264.761 29.1169 263.192 26.9626 261.565C24.7496 259.895 22.3034 258.566 20.1684 256.79C17.9796 254.97 15.5296 253.764 13.2443 252.107C8.40118 248.595 4.13645 244.645 1.40447 239.279Z" fill="#6B86FF"/>
<path fill-rule="evenodd" clip-rule="evenodd" d="M132.074 52.7974C132.013 53.1207 131.953 53.444 131.893 53.7676C131.93 53.776 134.828 48.1772 135.308 47.5011C136.936 45.209 139.055 43.3019 141.098 41.3875C145.426 37.3325 150.491 34.0596 154.732 29.9323C156.127 28.5744 158.627 26.517 158.075 24.2211C157.527 21.9392 152.896 22.4029 151.311 23.0631C148.825 24.0984 146.806 26.2637 144.953 28.1504C142.932 30.2086 140.895 32.2437 139.183 34.5729C137.336 37.0846 135.583 39.8048 134.452 42.7197C133.184 45.985 132.689 49.3643 132.074 52.7974ZM133.025 62.8153C131.059 63.4218 133.524 63.8314 132.754 64.8822C131.909 66.0345 130.489 62.4841 130.276 61.8137C129.024 57.8529 129.584 53.0412 130.268 49.0199C130.613 46.9912 130.836 44.9293 131.302 42.9226C131.756 40.9658 132.745 39.1064 133.659 37.3265C135.488 33.7651 137.911 30.4471 140.661 27.5432C143.418 24.6299 146.492 21.7151 150.131 19.9215C153.138 18.4403 157.904 19.468 159.311 22.7035C160.749 26.0097 158.804 29.6113 156.504 31.9359C153.504 34.9677 150.235 37.9791 146.865 40.5934C145.133 41.9372 143.681 43.5623 141.998 44.9645C140.207 46.4571 138.658 47.9584 137.334 49.8886C136.051 51.759 134.731 53.6279 133.898 55.7512C132.985 58.0763 133.025 60.3555 133.025 62.8153Z" fill="#122888"/>
<path fill-rule="evenodd" clip-rule="evenodd" d="M54.3639 205.393C49.8448 202.483 45.3106 199.928 41.3752 196.217C37.4896 192.553 34.0948 188.421 29.7702 185.242C27.6125 183.656 25.3855 182.167 23.266 180.529C21.2544 178.975 18.9422 177.643 17.124 175.87C14.7005 173.505 10.1632 169.112 13.2594 165.587C17.1024 170.158 22.3752 173.76 27.1824 177.23C32.2512 180.889 36.9036 185.157 41.7117 189.143C46.3433 192.983 50.9593 196.858 55.4788 200.799C56.6655 201.835 57.8103 202.922 59.011 203.941C59.1579 204.066 60.4026 204.854 60.4026 205.064C60.403 205.567 59.438 205.881 59.0943 206.022C58.5518 206.243 57.0846 206.792 56.4694 206.606C56.1469 206.509 56.1412 206.246 55.9088 206.09C55.7752 205.838 55.6192 205.601 55.4421 205.377C55.0824 205.383 54.7232 205.388 54.3639 205.393Z" fill="#6B86FF"/>
<path fill-rule="evenodd" clip-rule="evenodd" d="M320.402 154.658C317.18 154.575 312.277 154.566 312.457 158.965C312.547 161.143 313.728 162.743 314.698 164.606C315.716 166.564 316.472 168.586 316.771 170.781C317.98 179.665 314.735 188.343 311.8 196.556C318.104 191.468 322.656 184.389 325.046 176.63C326.205 172.867 326.655 168.031 326.281 164.113C326.094 162.153 325.371 160.395 324.5 158.648C324.063 157.771 323.626 156.769 322.928 156.059C322.23 155.347 321.261 155.11 320.402 154.658ZM309.164 201.644C307.083 198.221 310.36 193.182 311.431 189.845C312.712 185.855 313.894 181.7 314.441 177.539C315.015 173.18 314.274 169.791 312.254 165.941C310.447 162.499 309.375 157.914 311.383 154.272C312.192 152.807 313.387 152.626 314.806 152.042C316.549 151.324 317.029 150.111 319.168 150.303C322.984 150.645 324.75 154.265 326.169 157.348C329.479 164.537 328.58 173.814 325.757 181.033C324.132 185.186 322.279 189.499 319.521 193.036C318.168 194.77 316.578 196.273 314.928 197.72C313.143 199.284 311.544 201.17 309.164 201.644Z" fill="#122888"/>
<path fill-rule="evenodd" clip-rule="evenodd" d="M91.2418 76.8353C86.2109 77.8464 81.6199 80.1139 80.8139 85.768C80.0814 90.9064 83.5815 95.6602 87.8795 98.0655C92.5281 100.668 98.3529 101.1 102.985 98.2162C107.861 95.1802 108.967 89.0962 105.999 84.323C102.688 78.9965 97.14 77.4243 91.2418 76.8353ZM94.475 74.3702C100.466 75.2481 106.027 79.5117 108.045 85.2539C110.126 91.1733 108.214 97.6813 102.706 100.925C91.5749 107.48 76.6976 96.5555 79.3841 83.999C80.0663 80.8108 82.0033 78.3419 84.635 76.4753C87.5404 74.4141 91.0537 74.3581 94.475 74.3702Z" fill="#E29925"/>
<path fill-rule="evenodd" clip-rule="evenodd" d="M307.478 14.2581C300.259 10.9942 293.04 7.73036 285.822 4.4665C285.526 7.73868 285.23 11.0105 284.933 14.2827C284.853 15.1681 284.525 16.3726 284.665 17.2463C284.814 18.1787 284.495 18.0791 285.711 17.9466C287.265 17.7767 288.825 17.3928 290.363 17.1184C293.129 16.6248 296.07 16.4839 298.777 15.7579C300.159 15.3873 301.482 15.3407 302.884 15.1166C304.424 14.8706 305.922 14.4148 307.478 14.2581ZM283.059 20.5836C283.059 16.8977 283.469 13.2613 283.806 9.59244C284.11 6.29149 284.227 3.14499 285.304 0C286.31 1.82801 289.098 2.55861 290.822 3.49931C293.199 4.79546 295.73 5.74979 298.162 6.93048C300.552 8.08998 302.853 9.42134 305.245 10.5782C306.458 11.1649 307.69 11.7123 308.9 12.3036C309.658 12.6738 311.456 13.2697 311.927 13.9571C313.358 16.0437 308.459 16.2454 307.514 16.4294C304.678 16.9825 301.809 17.294 298.979 17.8626C296.34 18.3933 293.696 18.8858 291.048 19.367C288.427 19.8432 285.726 20.5836 283.059 20.5836Z" fill="#E29925"/>
<path fill-rule="evenodd" clip-rule="evenodd" d="M60.4792 111.833C63.3214 111.538 66.1518 111.112 68.9909 110.831C71.6793 110.565 74.0574 110.282 76.5134 109.05C73.1591 108.039 69.7972 107.081 66.4145 106.167C64.7367 105.714 63.0624 105.234 61.3771 104.811C60.0734 104.483 58.937 104.295 58.4358 102.872C57.8524 101.215 59.4745 101.466 60.4856 101.887C61.8802 102.468 63.3993 102.828 64.8446 103.311C68.0706 104.388 71.3163 105.379 74.5726 106.358C75.5848 106.662 81.4501 107.788 79.3366 109.745C78.4323 110.583 76.4142 111.043 75.3085 111.644C73.8901 112.416 72.346 112.723 70.7682 113.03C67.4797 113.67 64.0671 113.915 60.7381 114.47C59.0381 114.754 57.3384 115.037 55.6387 115.321C54.6427 115.487 54.2593 115.47 53.9992 114.36C53.8099 113.553 54.0567 112.745 54.2384 111.964C54.6995 109.977 55.2124 108.001 55.7201 106.027C55.9131 105.273 56.255 101.962 56.9269 101.6C58.4513 100.778 57.2752 105.362 57.162 105.924C56.7342 108.041 56.2262 110.144 55.9976 112.293C57.4947 112.158 58.9877 112.017 60.4792 111.833Z" fill="#122888"/>
<path fill-rule="evenodd" clip-rule="evenodd" d="M100.779 128.693C101.343 130.109 100.407 130.426 99.2704 130.916C97.7963 131.553 96.3465 132.224 94.8455 132.797C91.6881 134.002 88.5079 135.121 85.4257 136.516C79.5472 139.174 73.5892 141.727 67.802 144.574C66.3639 145.281 64.9246 145.986 63.4736 146.668C61.9731 147.372 60.2522 148.558 58.6468 148.961C57.2465 149.312 57.1004 148.315 57.9302 147.397C58.9999 146.213 60.6538 145.328 61.9973 144.505C67.5264 141.116 73.5608 138.357 79.5998 136.025C86.5799 133.33 93.5789 130.744 100.779 128.693Z" fill="#122888"/>
<path fill-rule="evenodd" clip-rule="evenodd" d="M116.127 48.3544C115.925 44.0488 116.501 39.7314 116.158 35.4372C110.254 40.671 113.162 48.7594 116.559 54.4384L116.127 48.3544ZM118.683 48.1083C118.72 50.2116 118.84 52.3136 118.635 54.4063C118.42 56.603 119.451 57.7345 120.794 59.3524C119.653 60.51 117.036 57.8109 116.313 57.0152C114.825 55.3769 113.718 53.2002 112.733 51.2329C110.634 47.042 109.189 42.555 110.868 37.9538C111.491 36.2484 112.253 33.9298 113.901 32.9368C115.712 31.8466 117.096 33.3843 117.847 34.9659C119.681 38.8248 118.283 43.9662 118.683 48.1083Z" fill="#122888"/>
<path fill-rule="evenodd" clip-rule="evenodd" d="M181.227 262.132C183.949 262.347 186.631 262.56 189.353 262.732C188.883 259.001 188.413 255.269 187.943 251.537C186.368 251.901 184.793 252.266 183.218 252.63C182.473 252.802 181.331 252.848 180.672 253.22C180.426 253.276 180.179 253.333 179.933 253.391C179.926 253.875 179.921 254.359 179.916 254.844C179.898 256.277 179.856 257.709 179.797 259.141C179.772 259.741 179.563 260.619 179.706 261.214C179.451 261.815 179.613 262.07 180.194 261.98C180.538 262.031 180.882 262.081 181.227 262.132ZM179.353 264.83C177.219 263.767 177.802 260.521 177.805 258.454C177.808 257.139 177.901 255.833 177.935 254.521C177.959 253.618 177.753 252.501 178.063 251.63C178.616 250.079 181.318 250.121 182.708 250.229C183.738 250.31 184.6 250.258 185.657 250.19C186.177 250.157 186.758 250.256 187.269 250.102C187.38 250.069 188.42 249.343 188.374 249.341C190.241 249.413 190.266 253.888 190.387 255.024C190.686 257.823 190.957 260.628 191.201 263.433C191.266 264.175 191.542 265.014 190.837 265.438C190.201 265.82 188.515 265.443 187.812 265.421C184.976 265.335 182.157 264.893 179.353 264.83Z" fill="#E29925"/>
<path fill-rule="evenodd" clip-rule="evenodd" d="M312.558 98.5277C313.791 99.638 313.198 100.783 312.794 102.17C312.551 103.003 311.217 105.736 311.585 106.515C312.011 107.415 314.01 107.636 314.866 107.921C316.355 108.416 317.851 108.913 319.26 109.611C319.885 109.921 322.141 110.634 322.564 111.212C322.806 111.544 322.895 111.803 322.712 112.231C322.393 112.981 321.936 112.584 321.157 112.423C317.595 111.687 314.064 110.746 310.761 109.194C309.84 111.332 309.06 113.515 308.281 115.708C308.052 116.351 307.834 117.811 306.967 117.915C305.909 118.042 305.895 116.625 305.965 115.861C306.068 114.745 306.646 113.555 306.995 112.499C307.283 111.627 308.294 109.811 308.169 108.912C308.084 108.294 307.707 108.337 307.035 108.094C306.4 107.864 305.765 107.636 305.13 107.404C304.113 107.032 303.1 106.659 302.11 106.217C301.567 105.975 300.43 105.692 300.037 105.189C299.809 104.898 299.554 103.847 299.842 103.556C300.516 102.875 304.995 104.708 305.916 104.959C306.527 105.125 307.141 105.252 307.734 105.469C307.958 105.552 308.224 105.888 308.467 105.901C309.497 105.953 309.579 105.161 309.898 104.311C310.641 102.336 311.446 100.321 312.558 98.5277Z" fill="#E29925"/>
<path fill-rule="evenodd" clip-rule="evenodd" d="M55.7565 137.818C55.2072 136.471 61.0373 134.844 62.1195 134.391C64.7611 133.285 67.5911 132.616 70.3261 131.772C73.0157 130.941 75.6936 130.047 78.3389 129.086C79.1569 128.788 85.0479 125.92 85.356 126.34C86.377 127.727 74.0151 132.087 72.8105 132.52C67.2171 134.534 61.4416 136.081 55.7565 137.818Z" fill="#122888"/>
<path fill-rule="evenodd" clip-rule="evenodd" d="M306.507 32.5185C304.996 32.5336 302.816 32.9621 301.43 32.3489C303.122 32.4053 304.815 32.4621 306.507 32.5185Z" fill="#E29925"/>
<path fill-rule="evenodd" clip-rule="evenodd" d="M94.4746 74.372L91.1143 74.3599C92.2355 74.0998 93.356 73.9427 94.4746 74.372Z" fill="#E29925"/>
<path fill-rule="evenodd" clip-rule="evenodd" d="M269.468 73.4738C270.261 73.4696 271.053 73.4655 271.84 73.4609C271.046 73.4655 270.257 73.4696 269.468 73.4738Z" fill="#E29925"/>
<path fill-rule="evenodd" clip-rule="evenodd" d="M338.746 93.9961C338.74 94.8437 338.735 95.6912 338.728 96.5354C338.733 95.6867 338.74 94.8414 338.746 93.9961Z" fill="#E29925"/>
<path fill-rule="evenodd" clip-rule="evenodd" d="M182.708 250.228C181.867 250.289 181.025 250.349 180.184 250.41C181.026 250.349 181.867 250.288 182.708 250.228Z" fill="#E29925"/>
<path fill-rule="evenodd" clip-rule="evenodd" d="M187.45 88.6906C186.596 88.7598 185.741 88.8295 184.887 88.8988C185.742 88.8291 186.596 88.7598 187.45 88.6906Z" fill="#E29925"/>
<path fill-rule="evenodd" clip-rule="evenodd" d="M275.889 73.1938C276.494 73.1927 277.098 73.1916 277.698 73.1904C277.092 73.1919 276.491 73.1931 275.889 73.1938Z" fill="#E29925"/>
<path fill-rule="evenodd" clip-rule="evenodd" d="M154.201 90.3433C153.45 90.411 152.698 90.4788 151.947 90.5465C152.698 90.4788 153.45 90.411 154.201 90.3433Z" fill="#E29925"/>
<path fill-rule="evenodd" clip-rule="evenodd" d="M187.398 36.6929C186.646 36.6974 185.894 36.702 185.143 36.7065C185.892 36.309 186.644 36.4116 187.398 36.6929Z" fill="#E29925"/>
<path fill-rule="evenodd" clip-rule="evenodd" d="M50.1848 166.707C49.5595 166.673 49.05 166.977 48.6971 166.38C49.2744 165.93 49.6076 166.449 50.1848 166.707Z" fill="#E29925"/>
<path fill-rule="evenodd" clip-rule="evenodd" d="M166.167 116.506L164.215 116.287L166.167 116.506Z" fill="#E29925"/>
<path fill-rule="evenodd" clip-rule="evenodd" d="M179.353 264.828C179.784 264.837 180.215 264.847 180.641 264.857C180.208 264.847 179.78 264.837 179.353 264.828Z" fill="#E29925"/>
<path fill-rule="evenodd" clip-rule="evenodd" d="M279.509 33.745C278.837 33.8052 278.165 33.8654 277.493 33.9256C278.165 33.865 278.837 33.8052 279.509 33.745Z" fill="#E29925"/>
<path fill-rule="evenodd" clip-rule="evenodd" d="M66.5752 237.571C65.9297 237.574 65.2847 237.577 64.6396 237.579C65.2851 237.576 65.9301 237.574 66.5752 237.571Z" fill="#E29925"/>
<path fill-rule="evenodd" clip-rule="evenodd" d="M14.6989 226.133C14.0474 226.134 13.3963 226.135 12.7452 226.136C13.3967 226.135 14.0474 226.134 14.6989 226.133Z" fill="#E29925"/>
<path fill-rule="evenodd" clip-rule="evenodd" d="M179.302 89.2277C178.641 89.2928 177.979 89.3575 177.318 89.4226C177.98 89.3575 178.641 89.2928 179.302 89.2277Z" fill="#E29925"/>
<path fill-rule="evenodd" clip-rule="evenodd" d="M160.85 90.3002C160.199 90.2253 159.549 90.1503 158.898 90.0754C159.543 90.2014 160.259 89.7036 160.85 90.3002Z" fill="#E29925"/>
<path fill-rule="evenodd" clip-rule="evenodd" d="M219.78 116.418C220.185 116.372 220.754 116.23 221.171 116.296C221.117 116.535 219.935 116.417 219.78 116.418Z" fill="#E29925"/>
<path fill-rule="evenodd" clip-rule="evenodd" d="M178.505 167.461C178.941 167.469 179.378 167.478 179.81 167.485C179.372 167.477 178.938 167.469 178.505 167.461Z" fill="#E29925"/>
<path fill-rule="evenodd" clip-rule="evenodd" d="M139.081 115.479C138.444 115.541 137.807 115.603 137.169 115.664C137.807 115.602 138.444 115.541 139.081 115.479Z" fill="#E29925"/>
<path fill-rule="evenodd" clip-rule="evenodd" d="M67.7106 113.307C68.0581 113.317 68.4056 113.326 68.7485 113.336C68.3995 113.326 68.0551 113.317 67.7106 113.307Z" fill="#E29925"/>
<path fill-rule="evenodd" clip-rule="evenodd" d="M161.656 115.958C161.111 115.947 160.565 115.936 160.02 115.925C160.565 115.936 161.111 115.947 161.656 115.958Z" fill="#E29925"/>
<path fill-rule="evenodd" clip-rule="evenodd" d="M60.4793 111.832C59.9281 111.9 59.3769 111.968 58.8265 112.036C59.3781 111.968 59.9285 111.9 60.4793 111.832Z" fill="#E29925"/>
<path fill-rule="evenodd" clip-rule="evenodd" d="M136.085 107.151C136.425 107.164 136.766 107.178 137.102 107.193C136.76 107.18 136.422 107.165 136.085 107.151Z" fill="#E29925"/>
<path fill-rule="evenodd" clip-rule="evenodd" d="M162.053 164.397C162.398 164.375 162.744 164.352 163.085 164.329C162.738 164.352 162.395 164.375 162.053 164.397Z" fill="#E29925"/>
<path fill-rule="evenodd" clip-rule="evenodd" d="M188.492 119.569C187.936 119.5 187.38 119.43 186.825 119.361C187.38 119.43 187.936 119.5 188.492 119.569Z" fill="#E29925"/>
<path fill-rule="evenodd" clip-rule="evenodd" d="M54.3641 205.394C54.7249 205.389 55.0857 205.384 55.4422 205.378C55.0804 205.383 54.7219 205.388 54.3641 205.394Z" fill="#E29925"/>
<path fill-rule="evenodd" clip-rule="evenodd" d="M24.7436 160.564C24.1689 160.506 23.5943 160.448 23.0193 160.39C23.5939 160.448 24.1686 160.506 24.7436 160.564Z" fill="#E29925"/>
<path fill-rule="evenodd" clip-rule="evenodd" d="M12.4822 226.21C11.9174 226.275 11.3526 226.34 10.7875 226.405C11.353 226.34 11.9174 226.275 12.4822 226.21Z" fill="#E29925"/>
<path fill-rule="evenodd" clip-rule="evenodd" d="M320.373 73.3799C320.328 73.8682 320.284 74.3565 320.239 74.843C320.283 74.3539 320.328 73.8671 320.373 73.3799Z" fill="#E29925"/>
<path fill-rule="evenodd" clip-rule="evenodd" d="M69.9508 237.083C69.3826 237.148 68.8144 237.214 68.2466 237.279C68.8148 237.214 69.383 237.148 69.9508 237.083Z" fill="#E29925"/>
<path fill-rule="evenodd" clip-rule="evenodd" d="M64.3758 237.646C63.8008 238.048 63.2262 238.07 62.6508 237.648C63.2258 237.647 63.8008 237.646 64.3758 237.646Z" fill="#E29925"/>
<path fill-rule="evenodd" clip-rule="evenodd" d="M53.4737 238.128C52.9161 238.128 52.3589 238.129 51.8016 238.129C52.3592 238.129 52.9165 238.128 53.4737 238.128Z" fill="#E29925"/>
<path fill-rule="evenodd" clip-rule="evenodd" d="M118.683 48.1069C118.635 47.6121 118.587 47.1177 118.54 46.6249C118.587 47.1204 118.635 47.6136 118.683 48.1069Z" fill="#E29925"/>
<path fill-rule="evenodd" clip-rule="evenodd" d="M179.575 37.0602C179.015 37.1295 178.454 37.1984 177.895 37.2672C178.455 37.1984 179.015 37.1295 179.575 37.0602Z" fill="#E29925"/>
<path fill-rule="evenodd" clip-rule="evenodd" d="M181.56 36.7976C180.991 36.8612 180.421 36.9252 179.852 36.9892C180.422 36.9252 180.991 36.8612 181.56 36.7976Z" fill="#E29925"/>
<path fill-rule="evenodd" clip-rule="evenodd" d="M93.1318 102.724C93.4824 102.718 93.8329 102.713 94.1785 102.708C93.8265 102.713 93.4793 102.718 93.1318 102.724Z" fill="#E29925"/>
<path fill-rule="evenodd" clip-rule="evenodd" d="M143.856 97.2455C145.716 96.9389 147.575 96.8367 149.433 97.2444L143.856 97.2455Z" fill="#E29925"/>
<path fill-rule="evenodd" clip-rule="evenodd" d="M193.441 76.3298C193.828 75.3191 193.924 74.9398 194.869 74.4166C194.476 75.399 194.414 75.9244 193.441 76.3298Z" fill="#E29925"/>
<path fill-rule="evenodd" clip-rule="evenodd" d="M238.779 176.358C238.817 177.409 238.854 178.46 238.891 179.51C238.853 178.458 238.816 177.408 238.779 176.358Z" fill="#E29925"/>
<path fill-rule="evenodd" clip-rule="evenodd" d="M306.203 34.9435C305.362 34.9624 304.521 34.9817 303.684 35.0006C304.526 34.9817 305.364 34.9624 306.203 34.9435Z" fill="#E29925"/>
<path fill-rule="evenodd" clip-rule="evenodd" d="M194.161 195.037C194.191 195.913 194.22 196.79 194.249 197.665C194.22 196.788 194.19 195.913 194.161 195.037Z" fill="#E29925"/>
<path fill-rule="evenodd" clip-rule="evenodd" d="M91.097 166.969C91.9465 166.975 92.7964 166.981 93.6458 166.988C92.796 166.981 91.9465 166.975 91.097 166.969Z" fill="#E29925"/>
<path fill-rule="evenodd" clip-rule="evenodd" d="M163.312 121.969C162.8 121.974 162.289 121.979 161.782 121.985C162.295 121.981 162.803 121.975 163.312 121.969Z" fill="#E29925"/>
<path fill-rule="evenodd" clip-rule="evenodd" d="M161.644 94.1207C161.223 94.1064 160.802 94.092 160.386 94.0791C160.809 94.0939 161.226 94.1071 161.644 94.1207Z" fill="#E29925"/>
<path fill-rule="evenodd" clip-rule="evenodd" d="M101.442 166.702C102.106 166.638 102.77 166.572 103.435 166.507C102.77 166.572 102.106 166.638 101.442 166.702Z" fill="#E29925"/>
<path fill-rule="evenodd" clip-rule="evenodd" d="M86.9688 167.002C87.6195 166.992 88.2702 166.982 88.9205 166.971C88.2702 166.982 87.6195 166.992 86.9688 167.002Z" fill="#E29925"/>
<path fill-rule="evenodd" clip-rule="evenodd" d="M93.9161 166.985C94.59 166.927 95.2638 166.868 95.938 166.809C95.2642 166.868 94.59 166.927 93.9161 166.985Z" fill="#E29925"/>
<path fill-rule="evenodd" clip-rule="evenodd" d="M96.3729 168.053C96.0379 168.052 95.7029 168.049 95.3724 168.047C95.709 168.05 96.041 168.052 96.3729 168.053Z" fill="#E29925"/>
<path fill-rule="evenodd" clip-rule="evenodd" d="M238.485 152.998C238.535 152.504 238.586 152.011 238.635 151.519C238.586 152.013 238.535 152.505 238.485 152.998Z" fill="#E29925"/>
<path fill-rule="evenodd" clip-rule="evenodd" d="M137.878 103.077C138.3 103.113 138.723 103.149 139.146 103.185C138.674 103.21 138.202 103.233 137.73 103.258C137.733 103.161 137.782 103.1 137.878 103.077Z" fill="#E29925"/>
<path fill-rule="evenodd" clip-rule="evenodd" d="M246.455 186.138C246.428 185.689 246.401 185.239 246.375 184.792C246.402 185.242 246.428 185.691 246.455 186.138Z" fill="#E29925"/>
<path fill-rule="evenodd" clip-rule="evenodd" d="M145.463 101.363C145.124 101.37 144.785 101.376 144.45 101.383C144.791 101.376 145.127 101.37 145.463 101.363Z" fill="#E29925"/>
<path fill-rule="evenodd" clip-rule="evenodd" d="M269.661 158.133C270.226 158.2 270.792 158.266 271.357 158.332C270.792 158.266 270.226 158.2 269.661 158.133Z" fill="#E29925"/>
<path fill-rule="evenodd" clip-rule="evenodd" d="M152.201 120.87C151.853 120.875 151.505 120.88 151.161 120.886C151.511 120.881 151.856 120.875 152.201 120.87Z" fill="#E29925"/>
<path fill-rule="evenodd" clip-rule="evenodd" d="M132.073 52.7974C132.438 52.9923 132.249 53.8493 131.893 53.7676C131.953 53.4439 132.013 53.1206 132.073 52.7974Z" fill="#E29925"/>
<path fill-rule="evenodd" clip-rule="evenodd" d="M320.402 154.656C320.066 154.648 319.731 154.639 319.4 154.63C319.737 154.639 320.069 154.648 320.402 154.656Z" fill="#E29925"/>
<path fill-rule="evenodd" clip-rule="evenodd" d="M116.127 48.3527C116.092 47.5975 116.056 46.8427 116.021 46.0897C116.056 46.8457 116.092 47.599 116.127 48.3527Z" fill="#E29925"/>
<path fill-rule="evenodd" clip-rule="evenodd" d="M179.677 261.905C180.194 261.981 180.711 262.057 181.228 262.132C180.71 262.057 180.194 261.981 179.677 261.905Z" fill="#E29925"/>
<path fill-rule="evenodd" clip-rule="evenodd" d="M176.26 67.4851C174.437 67.8602 172.566 68.0563 170.786 68.6086C170.342 68.7464 168.884 69.5929 168.352 69.3699C167.544 69.0303 167.953 68.1593 168.293 67.6944C169.204 66.4513 170.833 65.7548 172.327 65.7703C173.819 65.7862 175.866 65.7317 176.26 67.4851Z" fill="#E29925"/>
<path fill-rule="evenodd" clip-rule="evenodd" d="M171.196 70.8233C173.203 72.2281 174.736 72.9201 174.906 69.7626C177.081 70.059 176.106 73.5621 174.46 73.8263C172.669 74.1136 171.474 72.3242 171.196 70.8233Z" fill="#E29925"/>
</svg>
